<?xml version="1.0" encoding="UTF-8"?>
<svg width="759px" height="750px" viewBox="0 0 759 750" version="1.1" xmlns="http://www.w3.org/2000/svg" xmlns:xlink="http://www.w3.org/1999/xlink">
    <!-- Generator: Sketch 45.2 (43514) - http://www.bohemiancoding.com/sketch -->
    <title>Connect</title>
    <desc>Created with Sketch.</desc>
    <defs></defs>
    <g id="Symbols" stroke="none" stroke-width="1" fill="none" fill-rule="evenodd">
        <g id="Connect" stroke="#FFFFFF">
            <g id="original_original_original_Oval_11289930_74614278_23218211-Group">
                <g>
                    <path d="M325.581067,632.783224 C462.249071,632.783224 325.581067,499.687015 325.581067,363.003576 C325.581067,226.320138 791.174924,117.261959 654.506919,117.261959 C517.838915,117.261959 78.1217542,248.612528 78.1217542,385.295966 C78.1217542,521.979405 188.913062,632.783224 325.581067,632.783224 Z" id="duplicate_50_original_original_original_Oval_11289930_74614278_23218211" opacity="0" transform="translate(378.873134, 375.022592) rotate(352.800000) translate(-378.873134, -375.022592) "></path>
                    <path d="M325.652003,630.722723 C461.233204,630.722723 325.652003,498.684914 325.652003,363.088403 C325.652003,227.491891 787.54339,119.300959 651.96219,119.300959 C516.380989,119.300959 80.1605233,249.607009 80.1605233,385.20352 C80.1605233,520.800032 190.070803,630.722723 325.652003,630.722723 Z" id="duplicate_49_original_original_original_Oval_11289930_74614278_23218211" opacity="0.02" transform="translate(378.520285, 375.011841) rotate(345.600000) translate(-378.520285, -375.011841) "></path>
                    <path d="M327.22973,627.553974 C461.430323,627.553974 327.22973,496.86069 327.22973,362.644942 C327.22973,228.429195 784.417731,121.339958 650.217138,121.339958 C516.016545,121.339958 84.2380614,250.319117 84.2380614,384.534865 C84.2380614,518.750613 193.029137,627.553974 327.22973,627.553974 Z" id="duplicate_48_original_original_original_Oval_11289930_74614278_23218211" opacity="0.04" transform="translate(379.559660, 374.446966) rotate(338.400000) translate(-379.559660, -374.446966) "></path>
                    <path d="M326.315497,625.480111 C458.885192,625.480111 326.315497,496.375102 326.315497,363.790437 C326.315497,231.205771 777.947434,125.417956 645.377739,125.417956 C512.808044,125.417956 86.2768305,252.829671 86.2768305,385.414337 C86.2768305,517.999003 193.745802,625.480111 326.315497,625.480111 Z" id="duplicate_47_original_original_original_Oval_11289930_74614278_23218211" opacity="0.06" transform="translate(378.009477, 375.449034) rotate(331.200000) translate(-378.009477, -375.449034) "></path>
                    <path d="M327.887702,622.299859 C459.07374,622.299859 327.887702,494.542346 327.887702,363.341493 C327.887702,232.140641 774.805864,127.456956 643.619826,127.456956 C512.433788,127.456956 90.3543686,253.538849 90.3543686,384.739701 C90.3543686,515.940553 196.701665,622.299859 327.887702,622.299859 Z" id="duplicate_46_original_original_original_Oval_11289930_74614278_23218211" opacity="0.08" transform="translate(379.042142, 374.878407) rotate(324.000000) translate(-379.042142, -374.878407) "></path>
                    <path d="M327.959635,620.241433 C458.059419,620.241433 327.959635,493.541785 327.959635,363.427309 C327.959635,233.312833 771.177201,129.495955 641.077417,129.495955 C510.977632,129.495955 92.3931377,254.533858 92.3931377,384.648334 C92.3931377,514.76281 197.859851,620.241433 327.959635,620.241433 Z" id="duplicate_45_original_original_original_Oval_11289930_74614278_23218211" opacity="0.1" transform="translate(378.690503, 374.868694) rotate(316.800000) translate(-378.690503, -374.868694) "></path>
                    <path d="M328.326966,618.798397 C457.50364,618.798397 328.326966,492.997734 328.326966,363.806472 C328.326966,234.61521 768.399726,131.534954 639.223052,131.534954 C510.046378,131.534954 94.4319068,255.685663 94.4319068,384.876925 C94.4319068,514.068187 199.150292,618.798397 328.326966,618.798397 Z" id="duplicate_44_original_original_original_Oval_11289930_74614278_23218211" opacity="0.12" transform="translate(378.697878, 375.166676) rotate(309.600000) translate(-378.697878, -375.166676) "></path>
                    <path d="M328.400978,616.744303 C456.492547,616.744303 328.400978,492.000386 328.400978,363.894352 C328.400978,235.788318 764.777054,133.573954 636.685485,133.573954 C508.593916,133.573954 96.4706758,256.681776 96.4706758,384.78781 C96.4706758,512.893844 200.309409,616.744303 328.400978,616.744303 Z" id="duplicate_43_original_original_original_Oval_11289930_74614278_23218211" opacity="0.14" transform="translate(378.348766, 375.159128) rotate(302.400000) translate(-378.348766, -375.159128) "></path>
                    <path d="M329.97633,613.570608 C456.68598,613.570608 329.97633,490.172493 329.97633,363.448534 C329.97633,236.724575 761.644553,135.612953 634.934903,135.612953 C508.225253,135.612953 100.548214,257.392624 100.548214,384.116583 C100.548214,510.840542 203.266681,613.570608 329.97633,613.570608 Z" id="duplicate_42_original_original_original_Oval_11289930_74614278_23218211" opacity="0.16" transform="translate(379.385256, 374.591781) rotate(295.200000) translate(-379.385256, -374.591781) "></path>
                    <path d="M329.064143,611.501006 C454.144024,611.501006 329.064143,489.690066 329.064143,364.59606 C329.064143,239.502053 755.18015,139.690952 630.100269,139.690952 C505.020387,139.690952 102.586983,259.904264 102.586983,384.998271 C102.586983,510.092277 203.984261,611.501006 329.064143,611.501006 Z" id="duplicate_41_original_original_original_Oval_11289930_74614278_23218211" opacity="0.18" transform="translate(377.837559, 375.595979) rotate(288.000000) translate(-377.837559, -375.595979) "></path>
                    <path d="M330.633688,608.315213 C454.328444,608.315213 330.633688,487.853199 330.633688,364.144475 C330.633688,240.435751 752.030916,141.729951 628.336161,141.729951 C504.641406,141.729951 106.664521,260.61203 106.664521,384.320754 C106.664521,508.029478 206.938933,608.315213 330.633688,608.315213 Z" id="duplicate_40_original_original_original_Oval_11289930_74614278_23218211" opacity="0.2" transform="translate(378.866991, 375.022582) rotate(280.800000) translate(-378.866991, -375.022582) "></path>
                    <path d="M330.708673,606.263146 C453.318861,606.263146 330.708673,486.857355 330.708673,364.233322 C330.708673,241.609288 748.411048,143.76895 625.800861,143.76895 C503.190673,143.76895 108.70329,261.608659 108.70329,384.232693 C108.70329,506.856726 208.098486,606.263146 330.708673,606.263146 Z" id="duplicate_39_original_original_original_Oval_11289930_74614278_23218211" opacity="0.22" transform="translate(378.519062, 375.016048) rotate(273.600000) translate(-378.519062, -375.016048) "></path>
                    <path d="M332.283037,603.08739 C453.510759,603.08739 332.283037,485.027934 332.283037,363.786522 C332.283037,242.545109 745.275697,145.807949 624.047975,145.807949 C502.820253,145.807949 112.780828,262.318982 112.780828,383.560394 C112.780828,504.801806 211.055315,603.08739 332.283037,603.08739 Z" id="duplicate_38_original_original_original_Oval_11289930_74614278_23218211" opacity="0.24" transform="translate(379.554349, 374.447670) rotate(266.400000) translate(-379.554349, -374.447670) "></path>
                    <path d="M331.372085,601.020364 C450.970722,601.020364 331.372085,484.547417 331.372085,364.935275 C331.372085,245.323132 738.814857,149.885948 619.21622,149.885948 C499.617583,149.885948 114.819597,264.831279 114.819597,384.443421 C114.819597,504.055564 211.773449,601.020364 331.372085,601.020364 Z" id="duplicate_37_original_original_original_Oval_11289930_74614278_23218211" opacity="0.26" transform="translate(378.008155, 375.453156) rotate(259.200000) translate(-378.008155, -375.453156) "></path>
                    <path d="M332.94041,597.832028 C451.153247,597.832028 332.94041,482.708664 332.94041,364.482478 C332.94041,246.256292 735.662105,151.924947 617.449269,151.924947 C499.236433,151.924947 118.897136,265.538396 118.897136,383.764582 C118.897136,501.990768 214.727574,597.832028 332.94041,597.832028 Z" id="duplicate_36_original_original_original_Oval_11289930_74614278_23218211" opacity="0.28" transform="translate(379.036104, 374.878488) rotate(252.000000) translate(-379.036104, -374.878488) "></path>
                    <path d="M333.016355,595.78196 C450.145153,595.78196 333.016355,481.714303 333.016355,364.572277 C333.016355,247.430252 732.045002,153.963947 614.916204,153.963947 C497.787405,153.963947 120.935905,266.535535 120.935905,383.67756 C120.935905,500.819585 215.887556,595.78196 333.016355,595.78196 Z" id="duplicate_35_original_original_original_Oval_11289930_74614278_23218211" opacity="0.3" transform="translate(378.689340, 374.872953) rotate(244.800000) translate(-378.689340, -374.872953) "></path>
                    <path d="M333.379337,594.329864 C449.582623,594.329864 333.379337,481.163531 333.379337,364.947122 C333.379337,248.730712 729.254996,156.002946 613.051709,156.002946 C496.848423,156.002946 122.974674,267.685032 122.974674,383.901441 C122.974674,500.11785 217.17605,594.329864 333.379337,594.329864 Z" id="duplicate_34_original_original_original_Oval_11289930_74614278_23218211" opacity="0.32" transform="translate(378.691430, 375.166405) rotate(237.600000) translate(-378.691430, -375.166405) "></path>
                    <path d="M333.457514,592.284449 C448.577997,592.284449 333.457514,480.172621 333.457514,365.039139 C333.457514,249.905657 725.644328,158.041945 610.523846,158.041945 C495.403364,158.041945 125.013443,268.683356 125.013443,383.816838 C125.013443,498.950321 218.337032,592.284449 333.457514,592.284449 Z" id="duplicate_33_original_original_original_Oval_11289930_74614278_23218211" opacity="0.34" transform="translate(378.347381, 375.163197) rotate(230.400000) translate(-378.347381, -375.163197) "></path>
                    <path d="M335.029507,589.103754 C448.766214,589.103754 335.029507,478.339536 335.029507,364.589984 C335.029507,250.840433 722.502145,160.080944 608.765438,160.080944 C495.028731,160.080944 129.090981,269.39242 129.090981,383.141971 C129.090981,496.891523 221.2928,589.103754 335.029507,589.103754 Z" id="duplicate_32_original_original_original_Oval_11289930_74614278_23218211" opacity="0.36" transform="translate(379.379787, 374.592349) rotate(223.200000) translate(-379.379787, -374.592349) "></path>
                    <path d="M334.120552,587.040886 C446.229276,587.040886 334.120552,477.862104 334.120552,365.74072 C334.120552,253.619335 716.047056,164.158943 603.938332,164.158943 C491.829608,164.158943 131.12975,271.905776 131.12975,384.027161 C131.12975,496.148545 222.011827,587.040886 334.120552,587.040886 Z" id="duplicate_31_original_original_original_Oval_11289930_74614278_23218211" opacity="0.38" transform="translate(377.836019, 375.599914) rotate(216.000000) translate(-377.836019, -375.599914) "></path>
                    <path d="M335.68615,583.84687 C446.407569,583.84687 335.68615,476.019137 335.68615,365.285216 C335.68615,254.551294 712.886449,166.197942 602.165031,166.197942 C491.443613,166.197942 135.207288,272.611447 135.207288,383.345368 C135.207288,494.07929 224.964732,583.84687 335.68615,583.84687 Z" id="duplicate_30_original_original_original_Oval_11289930_74614278_23218211" opacity="0.4" transform="translate(378.860654, 375.022406) rotate(208.800000) translate(-378.860654, -375.022406) "></path>
                    <path d="M335.765263,581.803402 C445.404393,581.803402 335.765263,475.029672 335.765263,365.378161 C335.765263,255.72665 709.278475,168.236942 599.639345,168.236942 C490.000215,168.236942 137.246057,273.610267 137.246057,383.261778 C137.246057,492.913289 226.126133,581.803402 335.765263,581.803402 Z" id="duplicate_29_original_original_original_Oval_11289930_74614278_23218211" opacity="0.42" transform="translate(378.517741, 375.020172) rotate(201.600000) translate(-378.517741, -375.020172) "></path>
                    <path d="M337.336344,578.620809 C445.591196,578.620809 337.336344,473.195179 337.336344,364.928102 C337.336344,256.661025 706.133666,170.275941 597.878814,170.275941 C489.623962,170.275941 141.323595,274.318847 141.323595,382.585924 C141.323595,490.853001 229.081492,578.620809 337.336344,578.620809 Z" id="duplicate_28_original_original_original_Oval_11289930_74614278_23218211" opacity="0.44" transform="translate(379.549040, 374.448375) rotate(194.400000) translate(-379.549040, -374.448375) "></path>
                    <path d="M336.428574,576.56041 C443.056098,576.56041 336.428574,472.719579 336.428574,366.080014 C336.428574,259.44045 699.681993,174.35394 593.05447,174.35394 C486.426946,174.35394 143.362364,276.832833 143.362364,383.472398 C143.362364,490.111962 229.801051,576.56041 336.428574,576.56041 Z" id="duplicate_27_original_original_original_Oval_11289930_74614278_23218211" opacity="0.46" transform="translate(378.006712, 375.457175) rotate(187.200000) translate(-378.006712, -375.457175) "></path>
                    <path d="M337.99297,573.36389 C443.232524,573.36389 337.99297,470.874754 337.99297,365.623316 C337.99297,260.371878 696.517922,176.392939 591.278368,176.392939 C486.038814,176.392939 147.439902,277.537865 147.439902,382.789303 C147.439902,488.040741 232.753417,573.36389 337.99297,573.36389 Z" id="duplicate_26_original_original_original_Oval_11289930_74614278_23218211" opacity="0.48" transform="translate(379.029886, 374.878414) rotate(180.000000) translate(-379.029886, -374.878414) "></path>
                    <path d="M338.073004,571.32234 C442.230777,571.32234 338.073004,469.886712 338.073004,365.717176 C338.073004,261.54764 692.9126,178.431938 588.754826,178.431938 C484.597053,178.431938 149.478671,278.537174 149.478671,382.70671 C149.478671,486.876246 233.91523,571.32234 338.073004,571.32234 Z" id="duplicate_25_original_original_original_Oval_11289930_74614278_23218211" opacity="0.5" transform="translate(378.688092, 374.877139) rotate(172.800000) translate(-378.688092, -374.877139) "></path>
                    <path d="M338.431474,569.860846 C441.661245,569.860846 338.431474,469.328968 338.431474,366.08754 C338.431474,262.846112 690.109595,180.470937 586.879824,180.470937 C483.650054,180.470937 151.517441,279.684277 151.517441,382.925704 C151.517441,486.167132 235.201704,569.860846 338.431474,569.860846 Z" id="duplicate_24_original_original_original_Oval_11289930_74614278_23218211" opacity="0.52" transform="translate(378.684699, 375.165892) rotate(165.600000) translate(-378.684699, -375.165892) "></path>
                    <path d="M338.51393,567.824343 C440.663258,567.824343 338.51393,468.34467 338.51393,366.183806 C338.51393,264.022942 686.511254,182.509937 584.361925,182.509937 C482.212597,182.509937 153.55621,280.684871 153.55621,382.845735 C153.55621,485.006599 236.364602,567.824343 338.51393,567.824343 Z" id="duplicate_23_original_original_original_Oval_11289930_74614278_23218211" opacity="0.54" transform="translate(378.345849, 375.167140) rotate(158.400000) translate(-378.345849, -375.167140) "></path>
                    <path d="M340.082652,564.636835 C440.8464,564.636835 340.082652,466.50653 340.082652,365.731404 C340.082652,264.956277 683.359647,184.548936 582.5959,184.548936 C481.832152,184.548936 157.633748,281.3922 157.633748,382.167326 C157.633748,482.942453 239.318905,564.636835 340.082652,564.636835 Z" id="duplicate_22_original_original_original_Oval_11289930_74614278_23218211" opacity="0.56" transform="translate(379.374281, 374.592885) rotate(151.200000) translate(-379.374281, -374.592885) "></path>
                    <path d="M339.176806,562.580443 C438.314287,562.580443 339.176806,466.033903 339.176806,366.885226 C339.176806,267.736549 676.913516,188.626935 577.776035,188.626935 C478.638554,188.626935 159.672517,283.907206 159.672517,383.055883 C159.672517,482.20456 240.039324,562.580443 339.176806,562.580443 Z" id="duplicate_21_original_original_original_Oval_11289930_74614278_23218211" opacity="0.58" transform="translate(377.834291, 375.603689) rotate(144.000000) translate(-377.834291, -375.603689) "></path>
                    <path d="M340.738389,559.378063 C438.486347,559.378063 340.738389,464.184731 340.738389,366.425735 C340.738389,268.666738 673.74134,190.665934 575.993382,190.665934 C478.245424,190.665934 163.750055,284.610745 163.750055,382.369742 C163.750055,480.128738 242.990431,559.378063 340.738389,559.378063 Z" id="duplicate_20_original_original_original_Oval_11289930_74614278_23218211" opacity="0.6" transform="translate(378.854046, 375.021998) rotate(136.800000) translate(-378.854046, -375.021998) "></path>
                    <path d="M340.82174,557.343424 C437.48975,557.343424 340.82174,463.201816 340.82174,366.522889 C340.82174,269.843962 670.145577,192.704933 573.477567,192.704933 C476.809557,192.704933 165.788824,285.611815 165.788824,382.290742 C165.788824,478.969668 244.15373,557.343424 340.82174,557.343424 Z" id="duplicate_19_original_original_original_Oval_11289930_74614278_23218211" opacity="0.62" transform="translate(378.516284, 375.024179) rotate(129.600000) translate(-378.516284, -375.024179) "></path>
                    <path d="M342.389653,554.154229 C437.671635,554.154229 342.389653,461.362425 342.389653,366.069683 C342.389653,270.776941 666.991638,194.743933 571.709656,194.743933 C476.427674,194.743933 169.866362,286.318714 169.866362,381.611456 C169.866362,476.904198 247.10767,554.154229 342.389653,554.154229 Z" id="duplicate_18_original_original_original_Oval_11289930_74614278_23218211" opacity="0.64" transform="translate(379.543731, 374.449081) rotate(122.400000) translate(-379.543731, -374.449081) "></path>
                    <path d="M341.484923,552.100164 C435.141256,552.100164 341.484923,460.891524 341.484923,367.224614 C341.484923,273.557705 660.548726,198.821931 566.892393,198.821931 C473.23606,198.821931 171.905131,288.834313 171.905131,382.501222 C171.905131,476.168131 247.82859,552.100164 341.484923,552.100164 Z" id="duplicate_17_original_original_original_Oval_11289930_74614278_23218211" opacity="0.66" transform="translate(378.005099, 375.461048) rotate(115.200000) translate(-378.005099, -375.461048) "></path>
                    <path d="M343.04532,548.895313 C435.311475,548.895313 343.04532,459.040519 343.04532,366.763945 C343.04532,274.487371 657.373131,200.86093 565.106977,200.86093 C472.840822,200.86093 175.982669,289.537222 175.982669,381.813796 C175.982669,474.09037 250.779166,548.895313 343.04532,548.895313 Z" id="duplicate_16_original_original_original_Oval_11289930_74614278_23218211" opacity="0.68" transform="translate(379.023413, 374.878122) rotate(108.000000) translate(-379.023413, -374.878122) "></path>
                    <path d="M343.129552,546.86251 C434.316245,546.86251 343.129552,458.058965 343.129552,366.861974 C343.129552,275.664984 653.779908,202.89993 562.593214,202.89993 C471.406521,202.89993 178.021438,290.53876 178.021438,381.735751 C178.021438,472.932741 251.942859,546.86251 343.129552,546.86251 Z" id="duplicate_15_original_original_original_Oval_11289930_74614278_23218211" opacity="0.7" transform="translate(378.686722, 374.881220) rotate(100.800000) translate(-378.686722, -374.881220) "></path>
                    <path d="M343.483279,545.391134 C433.73935,545.391134 343.483279,457.493891 343.483279,367.227628 C343.483279,276.961365 650.963234,204.938929 560.707164,204.938929 C470.451094,204.938929 180.060207,291.683345 180.060207,381.949607 C180.060207,472.21587 253.227209,545.391134 343.483279,545.391134 Z" id="duplicate_14_original_original_original_Oval_11289930_74614278_23218211" opacity="0.72" transform="translate(378.677563, 375.165032) rotate(93.600000) translate(-378.677563, -375.165032) "></path>
                    <path d="M343.570171,543.363871 C432.748248,543.363871 343.570171,456.516447 343.570171,367.328298 C343.570171,278.14015 647.377674,206.977928 558.199596,206.977928 C469.021518,206.977928 182.098976,292.686294 182.098976,381.874442 C182.098976,471.062591 254.392093,543.363871 343.570171,543.363871 Z" id="duplicate_13_original_original_original_Oval_11289930_74614278_23218211" opacity="0.74" transform="translate(378.344104, 375.170900) rotate(86.400000) translate(-378.344104, -375.170900) "></path>
                    <path d="M345.135753,540.169822 C432.926516,540.169822 345.135753,454.673456 345.135753,366.872778 C345.135753,279.072101 644.217021,209.016928 556.426258,209.016928 C468.635495,209.016928 186.176515,293.391956 186.176515,381.192633 C186.176515,468.99331 257.34499,540.169822 345.135753,540.169822 Z" id="duplicate_12_original_original_original_Oval_11289930_74614278_23218211" opacity="0.76" transform="translate(379.368720, 374.593375) rotate(79.200000) translate(-379.368720, -374.593375) "></path>
                    <path d="M344.232835,538.119532 C430.39895,538.119532 344.232835,454.205354 344.232835,368.029509 C344.232835,281.853664 637.77933,213.094926 551.613215,213.094926 C465.447101,213.094926 188.215284,295.908517 188.215284,382.084362 C188.215284,468.260207 258.066721,538.119532 344.232835,538.119532 Z" id="duplicate_11_original_original_original_Oval_11289930_74614278_23218211" opacity="0.78" transform="translate(377.832290, 375.607229) rotate(72.000000) translate(-377.832290, -375.607229) "></path>
                    <path d="M345.790303,534.908578 C430.564621,534.908578 345.790303,452.349822 345.790303,367.565931 C345.790303,282.782039 634.595293,215.133926 549.820975,215.133926 C465.046657,215.133926 192.292822,296.609871 192.292822,381.393762 C192.292822,466.177654 261.015985,534.908578 345.790303,534.908578 Z" id="duplicate_10_original_original_original_Oval_11289930_74614278_23218211" opacity="0.8" transform="translate(378.847043, 375.021252) rotate(64.800000) translate(-378.847043, -375.021252) "></path>
                    <path d="M345.878051,532.8831 C429.57485,532.8831 345.878051,451.373703 345.878051,367.667452 C345.878051,283.961201 631.012203,217.172925 547.315404,217.172925 C463.618605,217.172925 194.331591,297.613275 194.331591,381.319526 C194.331591,465.025777 262.181252,532.8831 345.878051,532.8831 Z" id="duplicate_9_original_original_original_Oval_11289930_74614278_23218211" opacity="0.82" transform="translate(378.514625, 375.028013) rotate(57.600000) translate(-378.514625, -375.028013) "></path>
                    <path d="M347.442962,529.687652 C429.752076,529.687652 347.442962,449.529674 347.442962,367.211265 C347.442962,284.892857 627.849614,219.211924 545.540501,219.211924 C463.231387,219.211924 198.409129,298.31858 198.409129,380.636989 C198.409129,462.955397 265.133849,529.687652 347.442962,529.687652 Z" id="duplicate_8_original_original_original_Oval_11289930_74614278_23218211" opacity="0.84" transform="translate(379.538425, 374.449788) rotate(50.400000) translate(-379.538425, -374.449788) "></path>
                    <path d="M346.541066,527.639489 C427.226094,527.639489 346.541066,449.06315 346.541066,368.36901 C346.541066,287.67487 621.414865,223.289923 540.729836,223.289923 C460.044808,223.289923 200.447898,300.835684 200.447898,381.529824 C200.447898,462.223964 265.856037,527.639489 346.541066,527.639489 Z" id="duplicate_7_original_original_original_Oval_11289930_74614278_23218211" opacity="0.86" transform="translate(378.003235, 375.464706) rotate(43.200000) translate(-378.003235, -375.464706) "></path>
                    <path d="M348.097355,524.426081 C427.389937,524.426081 348.097355,447.205798 348.097355,367.904262 C348.097355,288.602726 618.227434,225.328922 538.934853,225.328922 C459.642271,225.328922 204.525436,301.536413 204.525436,380.837949 C204.525436,460.139484 268.804774,524.426081 348.097355,524.426081 Z" id="duplicate_6_original_original_original_Oval_11289930_74614278_23218211" opacity="0.88" transform="translate(379.016557, 374.877502) rotate(36.000000) translate(-379.016557, -374.877502) "></path>
                    <path d="M348.18595,522.402366 C426.40148,522.402366 348.18595,446.230986 348.18595,368.006623 C348.18595,289.782261 614.646782,227.367921 536.431252,227.367921 C458.215722,227.367921 206.564205,302.540266 206.564205,380.764628 C206.564205,458.988991 269.97042,522.402366 348.18595,522.402366 Z" id="duplicate_5_original_original_original_Oval_11289930_74614278_23218211" opacity="0.9" transform="translate(378.685168, 374.885144) rotate(28.800000) translate(-378.685168, -374.885144) "></path>
                    <path d="M347.711458,519.205597 C424.538952,519.205597 347.711458,444.385977 347.711458,367.549807 C347.711458,290.713637 609.443597,229.406921 532.616103,229.406921 C455.788609,229.406921 208.602974,303.245235 208.602974,380.081405 C208.602974,456.917575 270.883964,519.205597 347.711458,519.205597 Z" id="duplicate_4_original_original_original_Oval_11289930_74614278_23218211" opacity="0.92" transform="translate(377.669428, 374.306259) rotate(21.600000) translate(-377.669428, -374.306259) "></path>
                    <path d="M349.66966,516.829475 C425.326677,516.829475 349.66966,443.149742 349.66966,367.484181 C349.66966,291.81862 607.414276,231.44592 531.757259,231.44592 C456.100242,231.44592 212.680512,304.159297 212.680512,379.824858 C212.680512,455.490419 274.012643,516.829475 349.66966,516.829475 Z" id="duplicate_3_original_original_original_Oval_11289930_74614278_23218211" opacity="0.94" transform="translate(379.171216, 374.137698) rotate(14.400000) translate(-379.171216, -374.137698) "></path>
                    <path d="M349.363205,516.021772 C423.724991,516.021772 349.363205,443.603419 349.363205,369.233235 C349.363205,294.863052 602.695291,235.523918 528.333506,235.523918 C453.97172,235.523918 214.719282,306.992459 214.719282,381.362643 C214.719282,455.732826 275.00142,516.021772 349.363205,516.021772 Z" id="duplicate_2_original_original_original_Oval_11289930_74614278_23218211" opacity="0.96" transform="translate(378.359702, 375.772845) rotate(7.200000) translate(-378.359702, -375.772845) "></path>
                    <path d="M349.27804,513.63607 C422.466809,513.63607 349.27804,442.360077 349.27804,369.163043 C349.27804,295.966009 598.61395,237.562918 525.425181,237.562918 C452.236412,237.562918 216.758051,307.904081 216.758051,381.101115 C216.758051,454.298149 276.089271,513.63607 349.27804,513.63607 Z" id="duplicate_1_original_original_original_Oval_11289930_74614278_23218211" opacity="0.98"></path>
                </g>
            </g>
        </g>
    </g>
</svg>