<?xml version="1.0" encoding="UTF-8"?>
<svg width="957px" height="959px" viewBox="0 0 957 959" version="1.1" xmlns="http://www.w3.org/2000/svg" xmlns:xlink="http://www.w3.org/1999/xlink">
    <!-- Generator: Sketch 45.2 (43514) - http://www.bohemiancoding.com/sketch -->
    <title>Create BG</title>
    <desc>Created with Sketch.</desc>
    <defs></defs>
    <g id="Symbols" stroke="none" stroke-width="1" fill="none" fill-rule="evenodd">
        <g id="Create-BG" stroke="#FFFFFF">
            <g id="Create">
                <g id="original_Rectangle-2_10007733-Group">
                    <path d="M223.024655,224.058165 C79.1402601,367.895331 79.106089,655.882821 223.024655,799.754147 C256.690819,833.40926 272.960357,845.635616 281.443464,843.436698 C285.495846,842.386275 288.012156,837.875191 289.549004,829.22385 C290.833878,821.990944 291.383075,813.400384 292.020668,794.554279 C293.132775,761.682391 293.634421,751.146272 295.451852,731.497311 C298.02544,703.673235 302.294746,676.870129 308.924688,649.761811 C325.756847,580.93895 356.691227,515.03194 406.156256,451.498671 C447.061114,398.960153 495.617504,361.34641 551.089141,336.028968 C588.664186,318.879591 628.350125,307.779296 671.524712,301.017415 C688.748377,298.319894 706.148657,296.360648 725.127077,294.834673 C732.684351,294.227025 740.329513,293.698524 749.119288,293.158328 C754.300542,292.839903 771.691475,291.833692 770.79766,291.88643 C791.147365,290.685739 801.883842,289.749537 810.977283,288.144956 C821.941694,286.210235 828.648146,283.40397 831.732786,279.223456 C838.306229,270.314681 828.763286,253.901522 798.910131,224.058165 C654.923036,80.1183328 367.045905,80.0841891 223.024655,224.058165 Z" id="duplicate_50_original_Rectangle-2_10007733" opacity="0" transform="translate(474.408012, 479.885517) rotate(352.800000) translate(-474.408012, -479.885517) "></path>
                    <path d="M226.845215,226.65241 C84.4198594,369.031015 84.3860347,654.098962 226.845215,796.511381 C260.168558,829.823786 276.273153,841.926189 284.66759,839.750256 C288.676427,838.71112 291.166362,834.24732 292.687334,825.685352 C293.959137,818.52602 294.502765,810.022574 295.133893,791.367581 C296.234741,758.828471 296.73131,748.398988 298.530349,728.94887 C301.077897,701.406322 305.304009,674.874396 311.866874,648.040337 C328.528746,579.913744 359.150171,514.673496 408.11474,451.783023 C448.605882,399.775884 496.671213,362.542535 551.581839,337.48114 C588.776829,320.505222 628.061322,309.517213 670.799125,302.82374 C687.848508,300.153514 705.072706,298.214095 723.859057,296.703564 C731.339837,296.102066 738.90761,295.578915 747.608404,295.044188 C752.7372,294.728986 769.952031,293.732965 769.067259,293.785169 C789.210693,292.596648 799.838321,291.669937 808.839418,290.081652 C819.691613,288.166731 826.329133,285.38931 829.381544,281.252476 C835.886098,272.437063 826.440661,256.191605 796.891765,226.65241 C654.364748,84.1721757 369.406041,84.1383782 226.845215,226.65241 Z" id="duplicate_49_original_Rectangle-2_10007733" opacity="0.02" transform="translate(475.679332, 479.885517) rotate(345.600000) translate(-475.679332, -479.885517) "></path>
                    <path d="M231.104387,230.950646 C91.0964184,370.912657 91.0631677,651.143401 231.104387,791.138653 C263.85973,823.883244 279.691044,835.78028 287.938568,833.642429 C291.875258,832.621994 294.321493,828.236535 295.816161,819.822643 C297.06631,812.785211 297.60071,804.426098 298.221125,786.087746 C299.303321,754.099996 299.791477,743.847189 301.560043,724.726523 C304.064448,697.65042 308.218993,671.567797 314.670724,645.188139 C331.050457,578.215145 361.153369,514.079614 409.288756,452.254147 C449.09444,401.127417 496.346169,364.524317 550.32729,339.887152 C586.892591,323.198626 625.511953,312.396656 667.526078,305.816523 C684.286705,303.191521 701.219163,301.284951 719.687288,299.800008 C727.04133,299.2087 734.480882,298.694413 743.034249,298.168746 C748.076131,297.858886 764.999191,296.879746 764.129402,296.931066 C783.931078,295.762711 794.378362,294.851725 803.226459,293.290437 C813.892732,291.408324 820.416041,288.678693 823.415053,284.614228 C829.80547,275.953502 820.521583,259.985898 791.476797,230.950646 C651.368888,90.8887268 371.24553,90.8555027 231.104387,230.950646 Z" id="duplicate_48_original_Rectangle-2_10007733" opacity="0.04" transform="translate(475.714831, 479.885517) rotate(338.400000) translate(-475.714831, -479.885517) "></path>
                    <path d="M235.996817,234.715428 C98.1062145,372.560769 98.0734664,648.554654 235.996817,786.432733 C268.254656,818.679983 283.846605,830.397139 291.965448,828.292643 C295.838947,827.288588 298.246906,822.971748 299.718533,814.687553 C300.949715,807.756893 301.476034,799.5242 302.087066,781.46319 C303.152923,749.958371 303.633711,739.860313 305.375587,721.028212 C307.842202,694.360662 311.934063,668.671578 318.288453,642.689926 C334.421064,576.727359 364.069814,513.559438 411.478929,452.6668 C450.684226,402.311211 497.223329,366.260141 550.390306,341.994553 C586.404069,325.557751 624.44085,314.918731 665.821112,308.437872 C682.328821,305.852482 699.005747,303.974685 717.195141,302.512152 C724.438173,301.929771 731.765419,301.423247 740.189655,300.905517 C745.15541,300.600335 761.822911,299.635981 760.966246,299.686527 C780.468579,298.535833 790.757901,297.638622 799.471987,296.100981 C809.975412,294.247602 816.398686,291.559831 819.350927,287.558754 C825.641372,279.033515 816.498985,263.309281 787.895743,234.715428 C649.906708,96.7716876 374.018584,96.7389659 235.996817,234.715428 Z" id="duplicate_47_original_Rectangle-2_10007733" opacity="0.06" transform="translate(476.907789, 479.885517) rotate(331.200000) translate(-476.907789, -479.885517) "></path>
                    <path d="M240.687173,237.859147 C104.564641,373.936997 104.532312,646.392965 240.687173,782.503133 C272.529578,814.335087 287.92165,825.902038 295.933041,823.825394 C299.753772,822.835017 302.129769,818.575477 303.582158,810.399584 C304.797501,803.558081 305.317071,795.430953 305.920268,777.601533 C306.972482,746.499977 307.447118,736.53114 309.166706,717.939999 C311.601766,691.613605 315.641283,666.25314 321.91439,640.603836 C337.840646,575.485009 367.110156,513.125073 413.912811,453.011379 C452.616765,403.299719 498.560801,367.709611 551.047941,343.754304 C586.601151,327.527699 624.151457,317.024748 665.002423,310.626786 C681.298937,308.074472 697.762485,306.220701 715.71913,304.776883 C722.869465,304.201955 730.102931,303.701914 738.419339,303.19081 C743.321525,302.889535 759.775626,301.937529 758.929919,301.987428 C778.182291,300.851483 788.33971,299.965773 796.941892,298.447878 C807.309335,296.618494 813.649075,293.965677 816.562261,290.01753 C822.769227,281.605429 813.744996,266.084416 785.510458,237.859147 C649.290754,101.684155 376.93919,101.651853 240.687173,237.859147 Z" id="duplicate_46_original_Rectangle-2_10007733" opacity="0.08" transform="translate(478.508962, 479.885517) rotate(324.000000) translate(-478.508962, -479.885517) "></path>
                    <path d="M245.515163,241.6152 C111.505088,375.581288 111.473261,643.810221 245.515163,777.808125 C276.861218,809.14389 292.014479,820.531378 299.89749,818.488013 C303.655174,817.513978 305.992985,813.322897 307.422386,805.276401 C308.618807,798.541421 309.130314,790.540421 309.724149,772.9877 C310.760063,742.367955 311.227348,732.553508 312.920307,714.250262 C315.317666,688.331475 319.294644,663.363637 325.470635,638.111415 C341.150341,574.000673 369.966744,512.606103 416.04481,453.423076 C454.14977,404.480768 499.382831,369.44141 551.057716,345.856819 C586.060667,329.881355 623.029742,319.540976 663.248314,313.242057 C679.292497,310.729263 695.501105,308.904198 713.179665,307.482739 C720.21925,306.916716 727.340668,306.424421 735.528246,305.921235 C740.354481,305.624628 756.553615,304.687373 755.721001,304.7365 C774.674725,303.618176 784.674548,302.746208 793.14303,301.251905 C803.348003,299.45119 809.587939,296.840134 812.454462,292.955228 C818.561688,284.678301 809.67863,269.400094 781.884613,241.6152 C647.778868,107.553475 379.652719,107.521674 245.515163,241.6152 Z" id="duplicate_45_original_Rectangle-2_10007733" opacity="0.1" transform="translate(479.646058, 479.885517) rotate(316.800000) translate(-479.646058, -479.885517) "></path>
                    <path d="M250.145969,244.767642 C117.908871,376.961335 117.877465,641.642533 250.145969,773.867621 C281.075438,804.786937 296.028267,816.023803 303.803528,814.008367 C307.508298,813.048049 309.814058,808.914426 311.224167,800.976532 C312.404706,794.330957 312.909445,786.435815 313.495424,769.115326 C314.517656,738.899964 314.978772,729.215097 316.649382,711.153479 C319.015097,685.576795 322.939586,660.938488 329.034069,636.019536 C344.506847,572.754875 372.942958,512.170534 418.41288,453.768611 C456.015106,405.472019 500.651449,370.894902 551.644611,347.621452 C586.18573,331.856769 622.66698,321.652837 662.354788,315.437045 C678.18719,312.957419 694.181828,311.156447 711.626993,309.753755 C718.573623,309.195206 725.601001,308.709412 733.680452,308.21287 C738.442943,307.920181 754.428083,306.995307 753.606459,307.043786 C772.309528,305.940251 782.177081,305.079817 790.533349,303.605315 C800.601962,301.828661 806.758133,299.252656 809.585492,295.420828 C815.609007,287.257352 806.844434,272.18293 779.420144,244.767642 C647.088639,112.479574 382.508865,112.448194 250.145969,244.767642 Z" id="duplicate_44_original_Rectangle-2_10007733" opacity="0.12" transform="translate(481.179109, 479.885517) rotate(309.600000) translate(-481.179109, -479.885517) "></path>
                    <path d="M254.909513,248.514966 C124.77996,378.601804 124.749055,639.065791 254.909513,769.183525 C285.343783,799.607805 300.058358,810.665626 307.705535,808.683391 C311.347407,807.739376 313.615068,803.674054 315.002244,795.865256 C316.163903,789.325958 316.660598,781.556649 317.237238,764.512217 C318.243208,734.777546 318.69699,725.24671 320.341032,707.472318 C322.669134,682.302293 326.531229,658.0557 332.528822,633.532909 C347.755624,571.273988 375.739679,511.65277 420.486698,454.179351 C457.491322,406.650323 501.418343,372.622676 551.601136,349.719081 C585.593275,334.204955 621.494646,324.163216 660.55153,318.046238 C676.132187,315.60604 691.872478,313.833706 709.040204,312.453322 C715.87634,311.903657 722.791931,311.425591 730.742851,310.936949 C735.429568,310.648916 751.160334,309.738761 750.351772,309.786468 C768.756887,308.700513 778.467211,307.85379 786.690089,306.402825 C796.59661,304.654773 802.65321,302.120433 805.434014,298.351699 C811.358021,290.323082 802.734292,275.490902 775.749498,248.514966 C645.527041,118.335253 385.16286,118.304373 254.909513,248.514966 Z" id="duplicate_43_original_Rectangle-2_10007733" opacity="0.14" transform="translate(482.260335, 479.885517) rotate(302.400000) translate(-482.260335, -479.885517) "></path>
                    <path d="M259.480761,251.676131 C131.129092,379.98567 131.098608,636.892105 259.480761,765.232116 C289.497293,795.238796 304.01088,806.145577 311.55001,804.191349 C315.13882,803.261089 317.374342,799.253383 318.742173,791.553489 C319.887906,785.103843 320.377814,777.440684 320.946575,760.629128 C321.938827,731.299958 322.386422,721.89906 324.008053,704.366966 C326.304425,679.539991 330.113886,655.62384 336.029745,631.435241 C351.049046,570.024743 378.651757,511.215995 422.788949,454.525842 C459.289447,407.644317 502.618099,374.080191 552.117282,351.488598 C585.646313,336.185836 621.058508,326.280921 659.583159,320.2473 C674.951449,317.840362 690.477177,316.092188 707.410862,314.730622 C714.153788,314.188452 720.975078,313.716905 728.817572,313.234926 C733.440367,312.950822 748.956548,312.053082 748.159006,312.100139 C766.312772,311.029014 775.890461,310.193856 784.000814,308.762747 C793.770597,307.038823 799.7432,304.539631 802.484733,300.824121 C808.324797,292.90927 799.81988,278.281439 773.205837,251.676131 C644.762529,123.274984 387.954537,123.244526 259.480761,251.676131 Z" id="duplicate_42_original_Rectangle-2_10007733" opacity="0.16" transform="translate(483.725256, 479.885517) rotate(295.200000) translate(-483.725256, -479.885517) "></path>
                    <path d="M264.179848,255.414725 C137.930816,381.622317 137.900832,634.321366 264.179848,760.558932 C293.702336,790.07173 307.978223,800.799882 315.389568,798.878778 C318.915626,797.964783 321.113138,794.025219 322.458089,786.454121 C323.584987,780.110503 324.06687,772.572885 324.626313,756.036742 C325.60234,727.187144 326.042619,717.939918 327.637745,700.694381 C329.89659,676.273117 333.643802,652.747769 339.462997,628.954407 C354.236895,568.547306 381.388604,510.699438 424.804576,454.935625 C460.708865,408.819876 503.329848,375.80394 552.02055,353.58134 C585.001879,338.52855 619.835546,328.785453 657.730743,322.850415 C672.847874,320.482812 688.119848,318.763211 704.776741,317.4239 C711.40943,316.890594 718.119194,316.426756 725.833456,315.952659 C730.380653,315.6732 745.643053,314.790143 744.858543,314.836432 C762.715049,313.782847 772.135875,312.961367 780.113149,311.55374 C789.721217,309.858351 795.594481,307.400727 798.289567,303.748164 C804.030355,295.967858 795.665954,281.581704 769.490384,255.414725 C643.15121,129.117022 390.54899,129.087062 264.179848,255.414725 Z" id="duplicate_41_original_Rectangle-2_10007733" opacity="0.18" transform="translate(484.750604, 479.885517) rotate(288.000000) translate(-484.750604, -479.885517) "></path>
                    <path d="M268.691528,258.584614 C144.225286,383.010001 144.195725,632.141681 268.691528,756.59662 C297.795125,785.690664 311.869471,796.26736 319.17247,794.37434 C322.64532,793.474138 324.810605,789.59235 326.136157,782.130455 C327.247085,775.876736 327.722162,768.445562 328.273705,752.142937 C329.235975,723.699959 329.670051,714.58303 331.242704,697.580459 C333.469731,673.503192 337.164164,650.309198 342.901399,626.85095 C357.467224,567.294614 384.236536,510.261458 427.040998,455.283072 C462.439771,409.816613 504.460733,377.265476 552.465939,355.355739 C584.982881,340.514898 619.326023,330.909001 656.687518,325.05755 C671.591696,322.7233 686.648515,321.027925 703.070721,319.707484 C709.609942,319.181693 716.225145,318.724393 723.830682,318.256977 C728.313781,317.981458 743.361004,317.110851 742.587544,317.156487 C760.192008,316.117773 769.479832,315.307891 777.344272,313.920174 C786.815225,312.24898 792.60426,309.826601 795.259965,306.227409 C800.916579,298.561182 792.671319,284.379941 766.867522,258.584614 C642.312407,134.070384 393.276189,134.040847 268.691528,258.584614 Z" id="duplicate_40_original_Rectangle-2_10007733" opacity="0.2" transform="translate(486.147386, 479.885517) rotate(280.800000) translate(-486.147386, -479.885517) "></path>
                    <path d="M273.326149,262.314478 C150.957634,384.642827 150.928571,629.576946 273.326149,751.934348 C301.936856,780.535663 315.774057,790.934148 322.94957,789.074174 C326.359814,788.1902 328.487178,784.376395 329.789903,777.042994 C330.88204,770.895057 331.34911,763.58913 331.891358,747.561275 C332.837441,719.596749 333.264217,710.633133 334.810426,693.91645 C337.000015,670.243947 340.632344,647.439842 346.273142,624.375909 C360.594136,565.820627 386.913499,509.746106 428.998426,455.691898 C463.802381,410.989427 505.117326,378.9852 552.31594,357.443594 C584.286459,342.852142 618.052423,333.407684 654.785935,327.654586 C680.524083,323.623551 693.264221,322.59917 739.241295,319.886391 C756.549193,318.865175 765.680521,318.068939 773.412192,316.704649 C782.721808,315.061924 788.411735,312.681016 791.021103,309.144623 C796.578673,301.612628 788.4736,287.672499 763.107252,262.314478 C640.651358,139.89878 395.811092,139.86974 273.326149,262.314478 Z" id="duplicate_39_original_Rectangle-2_10007733" opacity="0.22" transform="translate(487.116848, 479.885517) rotate(273.600000) translate(-487.116848, -479.885517) "></path>
                    <path d="M277.778253,265.493089 C157.197432,386.03433 157.168794,627.391263 277.778253,747.961133 C305.968915,776.142542 319.604021,786.389154 326.670888,784.557342 C330.027779,783.687198 332.122827,779.931327 333.4061,772.70743 C334.482222,766.64964 334.942469,759.45045 335.476794,743.656755 C336.409083,716.099969 336.829638,707.267008 338.353313,690.79396 C340.510996,667.4664 344.090401,644.994561 349.649013,622.266664 C363.761362,564.564487 389.697276,509.306921 431.16901,456.040302 C465.466058,411.988907 506.179331,380.450759 552.690562,359.222877 C584.195417,344.843955 617.469506,335.537077 653.667847,329.867795 C679.030902,325.895506 691.585343,324.886056 736.892054,322.21283 C753.947217,321.206527 762.945177,320.42192 770.563702,319.077596 C779.735826,317.459132 785.341293,315.113565 787.911172,311.630691 C793.384336,304.213089 785.398731,290.478437 760.40518,265.493089 C639.738255,144.865773 398.473803,144.837157 277.778253,265.493089 Z" id="duplicate_38_original_Rectangle-2_10007733" opacity="0.24" transform="translate(488.445480, 479.885517) rotate(266.400000) translate(-488.445480, -479.885517) "></path>
                    <path d="M282.348398,269.214222 C163.860394,387.663334 163.832253,624.832531 282.348398,743.309774 C310.047323,770.999607 323.445839,781.068426 330.385519,779.269582 C333.67995,778.415628 335.737165,774.727581 336.997666,767.631878 C338.055041,761.679621 338.507299,754.605385 339.03235,739.085817 C339.94849,712.006362 340.361763,703.326357 341.859056,687.138527 C343.979388,664.214784 347.496835,642.131922 352.959235,619.797416 C366.827327,563.093951 392.314345,508.792776 433.068228,456.448171 C466.77185,413.158976 506.780759,382.166457 552.487286,361.305845 C583.446997,347.175729 616.14526,338.029911 651.717086,332.458752 C676.641029,328.555235 688.978078,327.563266 733.50001,324.936344 C750.259301,323.947497 759.10113,323.176505 766.587198,321.855553 C775.598363,320.265491 781.104954,317.961299 783.628604,314.541077 C789.002955,307.257392 781.15721,293.763289 756.600083,269.214222 C638.027465,150.680525 400.949143,150.652407 282.348398,269.214222 Z" id="duplicate_37_original_Rectangle-2_10007733" opacity="0.26" transform="translate(489.359045, 479.885517) rotate(259.200000) translate(-489.359045, -479.885517) "></path>
                    <path d="M286.740913,272.401557 C170.04551,389.058655 170.017794,622.64085 286.740913,739.325655 C314.018642,766.59443 327.214507,776.510959 334.045244,774.740355 C337.286176,773.900268 339.310986,770.270315 340.55198,763.284417 C341.593297,757.422554 342.038713,750.455348 342.555821,735.170583 C343.458128,708.499987 343.865163,699.950995 345.33986,684.007468 C347.428198,661.429614 350.892576,639.67993 356.272564,617.682383 C369.931438,561.834364 395.033955,508.352385 435.172963,456.797531 C468.368287,414.161198 507.773873,383.636037 552.79113,363.09001 C583.283899,349.173008 615.488938,340.165146 650.524124,334.678035 C675.071945,330.833425 687.222787,329.856427 731.072517,327.269167 C747.578379,326.295274 756.286475,325.535943 763.659087,324.235011 C772.532382,322.669277 777.954281,320.400523 780.438333,317.033967 C785.728047,309.864989 778.002098,296.576926 753.818791,272.401557 C637.040051,155.661148 403.547356,155.633455 286.740913,272.401557 Z" id="duplicate_36_original_Rectangle-2_10007733" opacity="0.28" transform="translate(490.619518, 479.885517) rotate(252.000000) translate(-490.619518, -479.885517) "></path>
                    <path d="M291.24657,276.113959 C176.639073,390.683837 176.611853,620.088121 291.24657,734.68521 C318.033716,761.463563 330.993546,771.202715 337.697394,769.465002 C340.876012,768.641068 342.863079,765.078778 344.081354,758.220773 C345.103968,752.464196 345.541414,745.621651 346.049269,730.61037 C346.935466,704.415985 347.335235,696.019589 348.783613,680.360611 C350.834688,658.185628 354.237253,636.824007 359.521255,615.218929 C372.936444,560.367278 397.591119,507.839447 437.01396,457.204442 C469.61725,415.328522 508.320125,385.34771 552.534566,365.168091 C582.48347,351.49931 614.114033,342.652132 648.524176,337.262913 C672.633914,333.486914 684.567875,332.527355 727.634666,329.986291 C743.845351,329.029814 752.397683,328.284065 759.638148,327.006451 C768.350861,325.469052 773.674116,323.241575 776.112048,319.937525 C781.303181,312.90215 773.716764,299.85407 749.968857,276.113959 C635.27951,161.462258 405.963124,161.43506 291.24657,276.113959 Z" id="duplicate_35_original_Rectangle-2_10007733" opacity="0.3" transform="translate(491.477173, 479.885517) rotate(244.800000) translate(-491.477173, -479.885517) "></path>
                    <path d="M295.579485,279.310015 C182.769494,392.082977 182.742701,617.890443 295.579485,730.690189 C321.944281,757.046331 334.700906,766.632777 341.295514,764.92338 C344.420486,764.113352 346.375058,760.609315 347.573774,753.861415 C348.580286,748.19548 349.010872,741.460258 349.510761,726.684422 C350.383087,700.900014 350.776602,692.63499 352.20232,677.220984 C354.221315,655.392837 357.570665,634.365306 362.772031,613.098108 C375.977429,559.104244 400.24655,507.397851 439.052834,457.554758 C471.146435,416.333486 509.244336,386.821312 552.767622,366.957138 C582.248305,353.502055 613.384294,344.79321 647.256329,339.488269 C670.988916,335.771338 682.73616,334.826792 725.12891,332.325498 C757.018913,330.443896 768.417737,328.432521 772.841427,322.437236 C777.94769,315.516882 770.481398,302.675407 747.108334,279.310015 C634.217773,166.45651 408.496826,166.429739 295.579485,279.310015 Z" id="duplicate_34_original_Rectangle-2_10007733" opacity="0.32" transform="translate(492.669476, 479.885517) rotate(237.600000) translate(-492.669476, -479.885517) "></path>
                    <path d="M300.02064,283.013686 C189.293646,393.704336 189.267347,615.343718 300.02064,726.060657 C325.896008,751.927532 338.417154,761.337017 344.88517,759.660434 C347.947976,758.86652 349.864893,755.429989 351.040943,748.809681 C352.028796,743.248784 352.451431,736.637929 352.942089,722.134935 C353.798343,696.825618 354.184609,688.712831 355.58407,673.582705 C357.565889,652.15648 360.853572,631.5161 365.959176,610.640448 C378.921464,557.640609 402.743796,506.886119 440.835597,457.960713 C472.338558,417.498065 509.7354,388.528959 552.457757,369.030331 C581.395855,355.822886 611.95872,347.274347 645.207181,342.067067 C668.502715,338.418587 680.033588,337.491438 721.645241,335.036231 C752.943144,333.189565 764.131824,331.21527 768.471413,325.333965 C773.479328,318.546899 766.152238,305.944844 743.213551,283.013686 C632.40747,172.243976 410.853008,172.217699 300.02064,283.013686 Z" id="duplicate_33_original_Rectangle-2_10007733" opacity="0.34" transform="translate(493.471210, 479.885517) rotate(230.400000) translate(-493.471210, -479.885517) "></path>
                    <path d="M304.293941,286.218464 C195.369358,395.107294 195.343487,613.140043 304.293941,722.054735 C329.745807,747.498246 342.063193,756.754609 348.421671,755.106419 C351.430683,754.326449 353.315019,750.948329 354.471456,744.438427 C355.443163,738.968419 355.858918,732.46518 356.341589,718.198273 C357.183935,693.300053 357.563929,685.318996 358.940669,670.434511 C360.89032,649.356068 364.124643,629.050689 369.147385,608.51384 C381.89931,556.374129 405.335036,506.443318 442.808597,458.311985 C473.800477,418.505772 510.590695,390.006582 552.620011,370.824261 C581.088611,357.831096 611.155552,349.421268 643.864437,344.298495 C666.78179,340.709245 678.125437,339.79715 719.061209,337.381822 C749.84677,335.565385 760.853613,333.623177 765.120429,327.840497 C770.043243,321.168767 762.836605,308.77388 740.273783,286.218464 C631.271397,177.251857 413.322186,177.226007 304.293941,286.218464 Z" id="duplicate_32_original_Rectangle-2_10007733" opacity="0.36" transform="translate(494.595328, 479.885517) rotate(223.200000) translate(-494.595328, -479.885517) "></path>
                    <path d="M308.670582,289.913403 C201.824084,396.72483 201.798706,610.599322 308.670582,717.436118 C333.634173,742.391514 345.716635,751.471334 351.94882,749.855881 C354.895812,749.091988 356.742582,745.781214 357.876406,739.398603 C358.829498,734.033386 359.237321,727.654221 359.710783,713.659511 C360.537094,689.235262 360.909856,681.406085 362.260402,666.804809 C364.172964,646.127341 367.345765,626.208201 372.272972,606.061974 C384.782359,554.913944 407.77235,505.932792 444.533112,458.716983 C474.935745,419.667605 511.026556,391.710203 552.256832,372.892566 C580.184126,360.146455 609.679293,351.896554 641.766075,346.871214 C664.247406,343.350252 675.375192,342.455514 715.531709,340.086164 C745.726566,338.30458 756.52376,336.399365 760.706674,330.730397 C765.53137,324.191641 758.463608,312.035608 736.334139,289.913403 C629.411317,183.025679 415.618769,183.000322 308.670582,289.913403 Z" id="duplicate_31_original_Rectangle-2_10007733" opacity="0.38" transform="translate(495.341128, 479.885517) rotate(216.000000) translate(-495.341128, -479.885517) "></path>
                    <path d="M312.884254,293.126902 C207.845072,398.131606 207.820124,608.38965 312.884254,713.419294 C337.423191,737.950176 349.301338,746.876456 355.423686,745.289474 C358.31674,744.539562 360.130838,741.287359 361.244997,735.015454 C362.181899,729.741373 362.582823,723.470116 363.048276,709.712137 C363.860641,685.700103 364.227114,678.003014 365.554877,663.648048 C367.435184,643.319308 370.554479,623.736081 375.3986,603.929579 C387.697051,553.644017 410.299384,505.488787 446.440223,459.06921 C476.330385,420.678054 511.812921,393.191846 552.34827,374.691377 C579.804788,362.16013 608.802682,354.049318 640.348419,349.108714 C662.450541,345.647143 673.390591,344.7675 712.869388,342.438137 C742.550508,340.686866 753.16537,338.813824 757.275313,333.24375 C762.014677,326.820643 755.067694,314.872343 733.315114,293.126902 C628.200895,188.047187 418.023409,188.022259 312.884254,293.126902 Z" id="duplicate_30_original_Rectangle-2_10007733" opacity="0.4" transform="translate(496.397047, 479.885517) rotate(208.800000) translate(-496.397047, -479.885517) "></path>
                    <path d="M317.196364,296.813109 C214.230356,399.74532 214.2059,605.854934 317.196364,708.811593 C341.248179,732.855513 352.891958,741.605668 358.888312,740.051345 C361.719492,739.317471 363.496113,736.132455 364.587713,729.987541 C365.506044,724.818002 365.899054,718.670527 366.355321,705.184102 C367.151688,681.644919 367.510947,674.09935 368.812577,660.026925 C370.655883,640.098212 373.713802,620.900311 378.462613,601.483507 C390.519099,552.187283 412.67675,504.979467 448.106476,459.473251 C477.408782,421.837141 512.193565,394.891441 551.931762,376.754794 C578.848254,364.470017 607.275726,356.518755 638.200829,351.675353 C659.867959,348.281909 670.592658,347.419581 709.294042,345.136088 C738.385854,343.419588 748.791563,341.583452 752.817802,336.12682 C757.459281,329.836372 750.650845,318.126363 729.330592,296.813109 C626.291024,193.807363 420.260377,193.782927 317.196364,296.813109 Z" id="duplicate_29_original_Rectangle-2_10007733" opacity="0.42" transform="translate(497.086897, 479.885517) rotate(201.600000) translate(-497.086897, -479.885517) "></path>
                    <path d="M321.350391,300.035328 C220.196603,401.155913 220.172577,603.639266 321.350391,704.783868 C344.976399,728.402122 356.415309,736.99832 362.301528,735.472546 C365.078622,734.752691 366.822484,731.626405 367.894364,725.592497 C368.796461,720.514343 369.182554,714.475068 369.63079,701.226017 C370.413174,678.100167 370.766127,670.687044 372.044912,656.861597 C373.855876,637.282559 376.860144,618.421482 381.525642,599.345325 C393.37062,550.91391 415.139561,504.534257 449.947682,459.826434 C478.736127,422.850332 512.910984,396.377106 551.952368,378.558487 C578.396806,366.489156 606.325656,358.67736 636.708246,353.918925 C657.995137,350.585033 668.531591,349.737841 706.553416,347.494444 C735.130097,345.808338 745.352979,344.004463 749.30605,338.646994 C753.861965,332.472509 747.174636,320.970795 726.232295,300.035328 C625.006238,198.842498 422.600462,198.818492 321.350391,300.035328 Z" id="duplicate_28_original_Rectangle-2_10007733" opacity="0.44" transform="translate(498.074602, 479.885517) rotate(194.400000) translate(-498.074602, -479.885517) "></path>
                    <path d="M325.597952,303.712802 C226.512426,402.765804 226.488892,601.110555 325.597952,700.187083 C348.737993,723.319529 359.943089,731.74002 365.703613,730.246827 C368.418981,729.542973 370.125454,726.483713 371.174828,720.576496 C372.058399,715.602636 372.436597,709.68685 372.875667,696.708709 C373.642091,674.05459 373.987848,666.792628 375.240561,653.249053 C377.014612,634.069094 379.957649,615.59243 384.528063,596.905049 C396.13165,549.460628 417.456962,504.026144 451.555655,460.229518 C479.757636,424.006673 513.236393,398.072674 551.482515,380.617016 C577.388205,368.793572 604.747984,361.140946 634.511411,356.479483 C655.364342,353.213556 665.685954,352.383639 702.932208,350.186003 C730.920977,348.534585 740.935202,346.767529 744.804766,341.523233 C749.263028,335.481094 742.713918,324.217106 722.202881,303.712802 C623.046559,204.589027 424.777797,204.565512 325.597952,303.712802 Z" id="duplicate_27_original_Rectangle-2_10007733" opacity="0.46" transform="translate(498.708485, 479.885517) rotate(187.200000) translate(-498.708485, -479.885517) "></path>
                    <path d="M329.692314,306.943741 C232.423913,404.180214 232.40081,598.888891 329.692314,696.14846 C352.405397,718.854087 363.405069,727.120204 369.05516,725.655637 C371.716296,724.96584 373.389921,721.96547 374.419522,716.169559 C375.286815,711.28733 375.658077,705.480038 376.089095,692.739912 C376.841498,670.500245 377.180931,663.371089 378.410738,650.075159 C380.152358,631.245822 383.0416,613.106894 387.528476,594.761081 C398.919982,548.183809 419.855533,503.579729 453.330938,460.583657 C481.017668,425.022606 513.884848,399.562359 551.432271,382.425589 C576.864631,370.818175 603.724438,363.305393 632.943884,358.729127 C653.415547,355.522913 663.548405,354.708173 700.11326,352.550741 C727.585504,350.9298 737.416408,349.195091 741.212605,344.050227 C745.585072,338.124364 739.157397,327.069236 719.025293,306.943741 C621.68739,209.637788 427.053309,209.614703 329.692314,306.943741 Z" id="duplicate_26_original_Rectangle-2_10007733" opacity="0.48" transform="translate(499.627957, 479.885517) rotate(180.000000) translate(-499.627957, -479.885517) "></path>
                    <path d="M333.875307,310.61248 C238.670256,405.786281 238.647643,596.366185 333.875307,691.562592 C356.103577,713.783565 366.869991,721.874392 372.394685,720.442329 C374.994241,719.768494 376.630566,716.834992 377.637715,711.16547 C378.486525,706.387289 378.849911,700.703192 379.271786,688.233333 C380.008266,666.464277 380.34052,659.485922 381.544317,646.471194 C383.249112,628.039989 386.077268,610.284561 390.469286,592.3266 C401.619975,546.733978 422.11295,503.072823 454.880612,460.985783 C481.982271,426.176201 514.155004,401.2539 550.909053,384.479229 C575.803945,373.117117 602.096033,365.763128 630.697786,361.283603 C650.736519,358.145194 660.655046,357.347687 696.446172,355.235908 C723.331901,353.649572 732.954642,351.951595 736.667532,346.919635 C740.942577,341.125804 734.652792,330.307837 714.950969,310.61248 C619.677885,215.370669 429.170994,215.348074 333.875307,310.61248 Z" id="duplicate_25_original_Rectangle-2_10007733" opacity="0.5" transform="translate(500.205855, 479.885517) rotate(172.800000) translate(-500.205855, -479.885517) "></path>
                    <path d="M337.909984,313.852138 C244.526961,407.204509 244.50478,594.138526 337.909984,687.51307 C359.710143,709.306073 370.27058,717.24211 375.684542,715.838749 C380.408422,714.614266 381.62834,707.747014 382.423151,684.253827 C383.145573,662.90034 383.471486,656.05515 384.652315,643.288736 C386.324592,625.209098 389.098807,607.792317 393.407061,590.176847 C404.345097,545.453713 424.447259,502.625203 456.589952,461.340878 C483.174969,427.194875 514.734475,402.747605 550.787939,386.292683 C575.208224,375.147183 600.99899,367.933416 629.055295,363.539317 C648.711731,360.460782 658.440995,359.678493 693.548883,357.607027 C719.916693,356.05125 729.355618,354.385708 732.994944,349.453448 C737.183962,343.776206 731.01594,333.167663 711.694073,313.852138 C618.244315,220.433054 431.381912,220.410891 337.909984,313.852138 Z" id="duplicate_24_original_Rectangle-2_10007733" opacity="0.52" transform="translate(501.057074, 479.885517) rotate(165.600000) translate(-501.057074, -479.885517) "></path>
                    <path d="M342.028387,317.512143 C250.703801,408.806752 250.682109,591.621827 342.028387,682.938121 C363.344887,704.247623 373.672621,712.008787 378.961485,710.637853 C383.573461,709.442377 384.766591,702.725919 385.543632,679.757977 C386.25017,658.873981 386.568921,652.179233 387.723802,639.693352 C389.359341,622.010897 392.072616,604.976704 396.286239,587.748162 C406.98403,544.007334 426.64467,502.119504 458.081304,461.742047 C484.082644,428.345723 514.949357,404.435119 550.211336,388.341433 C574.095432,377.440652 599.319831,370.3853 626.759914,366.087712 C645.98445,363.07682 655.499893,362.311723 689.835894,360.2858 C715.618586,358.764548 724.849844,357.135649 728.40606,352.316024 C732.497889,346.7705 726.467429,336.398553 707.574817,317.512143 C616.184963,226.152286 433.439923,226.130612 342.028387,317.512143 Z" id="duplicate_23_original_Rectangle-2_10007733" opacity="0.54" transform="translate(501.578964, 479.885517) rotate(158.400000) translate(-501.578964, -479.885517) "></path>
                    <path d="M346.003355,320.760518 C256.5057,410.228796 256.484442,589.388173 346.003355,678.877702 C366.890592,699.758082 377.011794,707.36404 382.189629,706.021886 C386.702287,704.852154 387.871642,698.26953 388.632912,675.767762 C389.325353,655.300454 389.637746,648.739229 390.769598,636.50233 C392.372531,619.172389 395.03172,602.477754 399.161353,585.592624 C409.645919,542.723625 428.914695,501.67068 459.724678,462.098097 C485.207985,429.367139 515.459821,405.932843 550.019331,390.159767 C573.427542,379.476181 598.149271,372.561427 625.042437,368.349496 C643.883648,365.398639 653.209318,364.648802 686.860243,362.6633 C712.123623,361.172688 721.17057,359.576312 724.653024,354.856655 C728.658594,349.428035 722.750225,339.266075 704.238592,320.760518 C614.676969,231.228294 435.586226,231.207052 346.003355,320.760518 Z" id="duplicate_22_original_Rectangle-2_10007733" opacity="0.56" transform="translate(502.361908, 479.885517) rotate(151.200000) translate(-502.361908, -479.885517) "></path>
                    <path d="M350.057142,324.411787 C262.613012,411.827214 262.592241,586.877481 350.057142,674.313672 C370.461874,694.711707 380.350929,702.143208 385.403964,700.833404 C389.804985,699.69261 390.947617,693.26042 391.691159,671.282643 C392.367755,651.283706 392.673002,644.872563 393.778968,632.915528 C395.345251,615.981822 397.943645,599.66886 401.978873,583.169736 C412.223768,541.280698 431.052076,501.166188 461.157685,462.498308 C486.058708,430.51524 515.619404,407.616329 549.389318,392.203627 C572.26262,381.764175 596.419334,375.007459 622.697749,370.891808 C641.108091,368.008432 650.220451,367.275746 683.101331,365.33568 C707.780988,363.879509 716.620765,362.319689 720.020307,357.712399 C723.92892,352.415182 718.157785,342.489253 700.074383,324.411787 C612.567747,236.933874 437.584539,236.913121 350.057142,324.411787 Z" id="duplicate_21_original_Rectangle-2_10007733" opacity="0.58" transform="translate(502.827767, 479.885517) rotate(144.000000) translate(-502.827767, -479.885517) "></path>
                    <path d="M353.972374,327.668878 C268.360077,413.253074 268.339741,584.637834 353.972374,670.242358 C373.946691,690.210119 383.62866,697.485998 388.570368,696.205051 C392.871804,695.09007 393.990598,688.792073 394.718327,667.281721 C395.380787,647.70059 395.67966,641.423328 396.762534,629.715943 C398.296124,613.135697 400.840287,597.163205 404.7913,581.008414 C414.822398,539.993544 433.257789,500.716159 462.735067,462.855314 C487.116667,431.539396 516.060836,409.118073 549.126395,394.02684 C571.522536,383.805167 595.175231,377.189426 620.905261,373.159661 C638.93125,370.336482 647.853328,369.619096 680.047294,367.719559 C704.206245,366.294112 712.861216,364.766902 716.186798,360.259848 C720.008921,355.079847 714.360204,345.364469 696.658803,327.668878 C610.985305,242.023502 439.666198,242.003183 353.972374,327.668878 Z" id="duplicate_20_original_Rectangle-2_10007733" opacity="0.6" transform="translate(503.542410, 479.885517) rotate(136.800000) translate(-503.542410, -479.885517) "></path>
                    <path d="M357.961517,331.31141 C274.39783,414.847668 274.377981,582.133149 357.961517,665.68925 C377.454485,685.175819 386.904861,692.277659 391.722068,691.028985 C395.912134,689.942872 397.004269,683.794949 397.714312,662.807335 C398.360964,643.693453 398.652709,637.565916 399.709759,626.137724 C401.206787,609.952765 403.690301,594.361033 407.547134,578.591324 C417.339134,538.55407 435.335112,500.212874 464.109701,463.254568 C487.910411,432.68475 516.165094,410.79753 548.442946,396.06581 C570.305458,386.087686 593.394489,379.629604 618.51124,375.69589 C636.107391,372.94003 644.816669,372.239754 676.242433,370.385544 C699.819058,368.994455 708.267355,367.503714 711.510224,363.108758 C715.235621,358.059846 709.723809,348.579935 692.449614,331.31141 C608.826186,247.71543 441.604786,247.695597 357.961517,331.31141 Z" id="duplicate_19_original_Rectangle-2_10007733" opacity="0.62" transform="translate(503.952210, 479.885517) rotate(129.600000) translate(-503.952210, -479.885517) "></path>
                    <path d="M361.816983,334.577217 C280.09003,416.277343 280.070617,579.887509 361.816983,661.607042 C380.878384,680.662186 390.12112,687.607988 394.826702,686.388248 C398.916917,685.328018 399.985149,679.314647 400.679337,658.795708 C401.311816,640.10075 401.597169,634.107452 402.631066,622.929578 C404.095314,607.099024 406.524451,591.848674 410.296844,576.424219 C419.874474,537.263472 437.476485,499.761641 465.621061,463.612529 C488.900958,433.711647 516.537464,412.303292 548.109078,397.893901 C569.493151,388.134138 592.076815,381.817409 616.643714,377.969811 C633.854483,375.274309 642.372969,374.589374 673.109982,372.775802 C696.164508,371.415519 704.427504,369.957474 707.596215,365.663022 C711.234891,360.731642 705.845825,351.462844 688.954653,334.577217 C607.169267,252.818676 443.621772,252.799279 361.816983,334.577217 Z" id="duplicate_18_original_Rectangle-2_10007733" opacity="0.64" transform="translate(504.598523, 479.885517) rotate(122.400000) translate(-504.598523, -479.885517) "></path>
                    <path d="M365.741448,338.21101 C286.058191,417.868111 286.039263,577.388834 365.741448,657.064857 C384.322654,675.639964 393.334354,682.412145 397.915734,681.224599 C401.894846,680.193168 402.936483,674.329511 403.613027,654.332057 C404.229737,636.103226 404.507978,630.259293 405.516114,619.359943 C406.943887,603.923729 409.312521,589.053225 412.990959,574.012928 C422.330066,535.827451 439.493717,499.259564 466.93729,464.010824 C489.63769,434.854253 516.586365,413.97872 547.372162,399.927979 C568.223887,390.411182 590.245238,384.251733 614.200329,380.499955 C630.982292,377.871611 639.288489,377.203745 669.259142,375.435391 C691.73274,374.109384 699.789557,372.687721 702.875753,368.505098 C706.417936,363.704491 701.165447,354.670596 684.700456,338.21101 C604.960221,258.496949 445.500602,258.478036 365.741448,338.21101 Z" id="duplicate_17_original_Rectangle-2_10007733" opacity="0.66" transform="translate(504.952233, 479.885517) rotate(115.200000) translate(-504.952233, -479.885517) "></path>
                    <path d="M369.537112,341.485529 C291.69549,419.3016 291.677,575.137203 369.537112,652.971758 C387.6856,671.114289 396.489106,677.730014 400.958563,676.571481 C404.837558,675.566001 405.855228,669.837256 406.515875,650.309726 C407.118373,632.500938 407.390206,626.791602 408.375127,616.143238 C409.770032,601.062374 412.084144,586.534162 415.677917,571.840041 C424.802083,534.53341 441.570715,498.807127 468.382594,464.36974 C490.560792,435.88389 516.889641,415.488499 546.967314,401.760947 C567.339324,392.463094 588.853961,386.445375 612.257732,382.779943 C628.653284,380.212118 636.768182,379.559634 666.048245,377.832026 C687.998351,376.536907 695.869374,375.148028 698.881214,371.066177 C702.336444,366.383415 697.207028,357.561197 681.126082,341.485529 C603.228794,263.61381 447.452882,263.595334 369.537112,341.485529 Z" id="duplicate_16_original_Rectangle-2_10007733" opacity="0.68" transform="translate(505.530182, 479.885517) rotate(108.000000) translate(-505.530182, -479.885517) "></path>
                    <path d="M373.396863,345.110582 C297.59402,420.888542 297.576014,572.644538 373.396863,648.440499 C391.066311,666.104147 399.639336,672.546669 403.984889,671.420252 C407.753049,670.443503 408.744187,664.864111 409.387234,645.856812 C409.974001,628.51303 410.238739,622.9527 411.19796,612.58219 C412.556478,597.894716 414.810232,583.745437 418.310277,569.43455 C427.196492,533.100843 443.527819,498.306257 469.640382,464.767078 C491.240477,437.023747 516.883149,417.159897 546.176895,403.790133 C566.017837,394.73466 586.971515,388.873844 609.76495,385.304001 C625.732727,382.803173 633.635845,382.167716 662.151393,380.485217 C683.521967,379.224292 691.187307,377.871707 694.116832,373.901416 C697.475801,369.349114 692.482633,360.761232 676.826843,345.110582 C600.969786,269.278424 449.271918,269.260432 373.396863,345.110582 Z" id="duplicate_15_original_Rectangle-2_10007733" opacity="0.7" transform="translate(505.827766, 479.885517) rotate(100.800000) translate(-505.827766, -479.885517) "></path>
                    <path d="M377.132684,348.393812 C303.176376,422.325845 303.158808,570.386917 377.132684,644.336511 C394.368263,661.566433 402.73254,667.852083 406.965873,666.754755 C410.633649,665.804027 411.600757,660.359905 412.227863,641.823781 C412.800382,624.901159 413.058695,619.475784 413.994638,609.356928 C415.320201,595.02575 417.519288,581.219673 420.934443,567.255883 C429.605145,531.803359 445.540403,497.852617 471.019591,465.126949 C492.096095,438.056123 517.117292,418.673692 545.701031,405.627977 C565.060982,396.792031 585.506596,391.073321 607.747245,387.590054 C623.327584,385.149906 631.038893,384.529872 658.862014,382.888228 C679.707704,381.658272 687.186755,380.338559 690.041726,376.469309 C693.313511,372.035164 688.443744,363.659523 673.17302,348.393812 C599.163813,274.408898 451.159451,274.391344 377.132684,348.393812 Z" id="duplicate_14_original_Rectangle-2_10007733" opacity="0.72" transform="translate(506.337312, 479.885517) rotate(93.600000) translate(-506.337312, -479.885517) "></path>
                    <path d="M380.927676,352.010122 C309.00523,423.908959 308.988145,567.900263 380.927676,639.816181 C397.68537,656.568374 405.819722,662.681239 409.929451,661.615951 C413.486658,660.693883 414.427299,655.398754 415.036847,637.381606 C415.593672,620.922869 415.844907,615.64614 416.755213,605.804468 C418.044477,591.865732 420.183352,578.437674 423.505005,564.856193 C431.93833,530.374248 447.437337,497.352955 472.218896,465.523328 C492.718691,439.193231 517.055365,420.341059 544.857069,407.652268 C563.687233,399.058118 583.57324,393.495933 605.205025,390.108024 C620.358621,387.734711 627.858662,387.131665 654.919111,385.53502 C675.186667,384.339176 682.460531,383.055669 685.233384,379.29771 C688.40914,374.99371 683.675293,366.851841 668.8287,352.010122 C596.854804,280.05985 452.91865,280.042779 380.927676,352.010122 Z" id="duplicate_13_original_Rectangle-2_10007733" opacity="0.74" transform="translate(506.578729, 479.885517) rotate(86.400000) translate(-506.578729, -479.885517) "></path>
                    <path d="M384.603607,355.302061 C314.532594,425.350074 314.515948,565.636654 384.603607,635.701308 C400.926282,652.018624 408.851333,657.974202 412.848543,656.938079 C416.3051,656.042101 417.221647,650.882602 417.815213,633.337878 C418.357751,617.301418 418.602544,612.160002 419.489511,602.570651 C420.745732,588.989156 422.829795,575.905211 426.066333,562.671747 C434.283573,529.073323 449.38546,496.898112 473.531964,465.884153 C493.50678,440.228345 517.22033,421.85887 544.310144,409.494988 C562.658041,401.120946 582.034637,395.701245 603.11217,392.400141 C617.8773,390.087669 625.185023,389.500086 651.551209,387.944405 C671.292488,386.779613 678.37957,385.529064 681.077671,381.872414 C684.166012,377.686885 679.555892,369.757819 665.095388,355.302061 C594.974242,285.203932 454.741391,285.187299 384.603607,355.302061 Z" id="duplicate_12_original_Rectangle-2_10007733" opacity="0.76" transform="translate(507.019828, 479.885517) rotate(79.200000) translate(-507.019828, -479.885517) "></path>
                    <path d="M388.333789,358.909624 C320.291719,426.92936 320.275555,563.156015 388.333789,631.191909 C404.179735,647.032653 411.875417,652.815863 415.749321,651.811703 C419.095577,650.944315 419.985721,645.933449 420.561771,628.906446 C421.088653,613.332749 421.326386,608.33962 422.187777,599.026782 C423.407787,585.83678 425.431783,573.12994 428.575045,560.277861 C436.555483,527.647668 451.222175,496.399658 474.672737,466.279574 C494.072238,441.362704 517.102921,423.522205 543.41259,411.514383 C561.231981,403.381553 580.050325,398.117997 600.520466,394.912022 C614.859884,392.666223 621.956851,392.095586 647.562209,390.584796 C666.726753,389.454033 673.609143,388.239603 676.225326,384.693975 C679.21787,380.638276 674.743341,372.942416 660.705942,358.909624 C592.615185,290.841217 456.440703,290.825066 388.333789,358.909624 Z" id="duplicate_11_original_Rectangle-2_10007733" opacity="0.78" transform="translate(507.205029, 479.885517) rotate(72.000000) translate(-507.205029, -479.885517) "></path>
                    <path d="M391.949775,362.210269 C325.764033,428.374286 325.74831,560.88642 391.949775,627.066155 C407.359551,642.470872 414.845377,648.096378 418.606466,647.121461 C421.851806,646.280232 422.717793,641.405354 423.277817,624.852025 C423.790376,609.701721 424.021649,604.844263 424.85964,595.784414 C426.046519,582.952598 428.015559,570.59078 431.07348,558.087639 C438.837262,526.343302 453.105783,495.943612 475.919611,466.641354 C494.792744,442.400555 517.198657,425.044029 542.794553,413.361976 C560.130402,405.449836 578.437987,400.329141 598.352411,397.2102 C612.302336,395.025403 619.206476,394.47027 644.115735,393.000552 C662.75261,391.900923 669.447724,390.719539 671.988958,387.275487 C674.893855,383.338573 670.543382,375.856079 656.893091,362.210269 C590.659984,295.998902 458.198598,295.983191 391.949775,362.210269 Z" id="duplicate_10_original_Rectangle-2_10007733" opacity="0.8" transform="translate(507.577629, 479.885517) rotate(64.800000) translate(-507.577629, -479.885517) "></path>
                    <path d="M395.615086,365.809083 C331.453367,429.949741 331.438124,558.411796 395.615086,622.567692 C410.549289,637.496993 417.806303,642.950549 421.444385,642.007517 C424.579691,641.19481 425.419339,636.468204 425.961891,620.43134 C426.458831,605.742678 426.683061,601.033147 427.495538,592.24914 C428.646294,579.807867 430.555413,567.822239 433.520284,555.699558 C441.047838,524.921105 454.882219,495.446368 477.001793,467.035815 C495.301007,443.532162 517.025709,426.703329 541.843352,415.376474 C558.651977,407.704961 576.402664,402.740032 595.711168,399.715989 C609.236414,397.597703 615.930308,397.059476 640.080585,395.63454 C658.142124,394.568857 664.633043,393.423504 667.092557,390.090204 C669.90189,386.282806 665.686678,379.032953 652.458467,365.809083 C588.250824,301.622516 459.837964,301.607285 395.615086,365.809083 Z" id="duplicate_9_original_Rectangle-2_10007733" opacity="0.82" transform="translate(507.706556, 479.885517) rotate(57.600000) translate(-507.706556, -479.885517) "></path>
                    <path d="M399.171061,369.118428 C336.870563,431.398476 336.855763,556.136218 399.171061,618.431062 C413.667943,632.923186 420.71455,638.218623 424.239519,637.304911 C427.273642,636.518432 428.089069,631.928172 428.615553,616.366231 C429.098132,602.102078 429.315885,597.528576 430.1049,588.998225 C431.222438,576.916081 433.076456,565.276385 435.955761,553.503562 C443.266089,523.613301 456.70125,494.989119 478.182411,467.398549 C495.953869,444.572749 517.052153,428.229165 541.154142,417.228936 C557.47795,409.778696 574.716532,404.957004 593.467854,402.020226 C606.60258,399.963102 613.103139,399.44042 636.555482,398.056664 C654.087961,397.022198 660.39111,395.909978 662.775477,392.678522 C665.496932,388.990221 661.406103,381.954296 648.56602,369.118428 C586.220925,306.793797 461.53095,306.779008 399.171061,369.118428 Z" id="duplicate_8_original_Rectangle-2_10007733" opacity="0.84" transform="translate(508.010594, 479.885517) rotate(50.400000) translate(-508.010594, -479.885517) "></path>
                    <path d="M402.771429,372.708489 C342.490032,432.9701 342.47571,553.667614 402.771429,613.943542 C416.793896,627.961406 423.612246,633.085311 427.014507,632.203406 C429.938866,631.44538 430.728017,627.003032 431.237071,611.956299 C432.15441,584.841389 433.407825,571.290226 438.340586,551.121291 C445.41526,522.194562 458.417338,494.493084 479.205933,467.792051 C496.404868,445.701604 516.823598,429.88443 540.149228,419.238534 C555.947094,412.028335 572.630132,407.362032 590.777008,404.519919 C603.488089,402.529146 609.778913,402.023327 632.47412,400.684245 C649.432662,399.683642 655.532113,398.607366 657.834958,395.486393 C660.461082,391.927293 656.505186,385.123443 644.086156,372.708489 C583.761598,312.403732 463.110302,312.389422 402.771429,372.708489 Z" id="duplicate_7_original_Rectangle-2_10007733" opacity="0.86" transform="translate(508.083181, 479.885517) rotate(43.200000) translate(-508.083181, -479.885517) "></path>
                    <path d="M407.392641,377.171724 C349.621428,434.923973 349.607703,550.598597 407.392641,608.364567 C420.825304,621.792822 427.359882,626.703476 430.609591,625.861114 C433.397486,625.13846 434.153971,620.879999 434.641356,606.473784 C435.520665,580.482971 436.722157,567.493172 441.45061,548.159603 C448.232315,520.430759 460.695974,493.876404 480.623558,468.28126 C497.110721,447.105019 516.684616,431.942288 539.04506,421.736907 C554.189065,414.825132 570.181439,410.352009 587.576858,407.627588 C599.761253,405.719303 605.791332,405.23445 627.545251,403.950906 C643.790264,402.992404 649.636473,401.960813 651.83797,398.977195 C654.345575,395.578719 650.55743,389.063388 638.661861,377.171724 C580.849275,319.378115 465.218945,319.364401 407.392641,377.171724 Z" id="duplicate_6_original_Rectangle-2_10007733" opacity="0.88" transform="translate(508.318584, 479.885517) rotate(36.000000) translate(-508.318584, -479.885517) "></path>
                    <path d="M411.448548,379.64595 C355.068875,436.007117 355.05548,548.897265 411.448548,605.271823 C424.554251,618.373223 430.931517,623.16566 434.096657,622.34522 C436.808903,621.642175 437.54728,617.485653 438.022651,603.434513 C438.880879,578.066852 440.053586,565.388248 444.668781,546.517771 C451.288076,519.452981 463.453259,493.534542 482.903534,468.552457 C498.996122,447.883012 518.101677,433.083076 539.927063,423.121897 C554.708596,416.375556 570.318096,412.009524 587.296938,409.350346 C599.189362,407.487789 605.074894,407.014558 626.307004,405.761803 C642.156466,404.826639 647.86229,403.81982 650.007603,400.912345 C652.449506,397.602913 648.754356,391.247525 637.148971,379.64595 C580.728915,323.244414 467.881993,323.231029 411.448548,379.64595 Z" id="duplicate_5_original_Rectangle-2_10007733" opacity="0.9" transform="translate(509.943187, 479.885517) rotate(28.800000) translate(-509.943187, -479.885517) "></path>
                    <path d="M415.989422,384.042884 C362.082645,437.931967 362.069838,545.873837 415.989422,599.775723 C428.514083,612.296272 434.611792,616.878625 437.626645,616.097141 C440.204457,615.428943 440.910652,611.453577 441.364676,598.033439 C442.185438,573.773177 443.306994,561.647599 447.720916,543.600078 C454.051594,517.715379 465.686356,492.927023 484.28841,469.0344 C499.6798,449.265579 517.95307,435.110365 538.827608,425.583156 C552.964992,419.130807 567.894088,414.955086 584.132634,412.411852 C595.506197,410.630556 601.134857,410.17798 621.439662,408.979938 C636.586194,408.086249 642.042538,407.123452 644.088008,404.351292 C646.413153,401.200097 642.883262,395.128944 631.793562,384.042884 C577.848164,330.115194 469.947622,330.102396 415.989422,384.042884 Z" id="duplicate_4_original_Rectangle-2_10007733" opacity="0.92" transform="translate(510.163403, 479.885517) rotate(21.600000) translate(-510.163403, -479.885517) "></path>
                    <path d="M420.002173,386.58341 C367.524223,439.044135 367.511755,544.126916 420.002173,596.600105 C432.191111,608.785041 438.127293,613.246009 441.055312,612.487033 C443.555447,611.83897 444.243048,607.968274 444.684738,594.912726 C445.483853,571.292314 446.575853,559.486271 450.873481,541.914251 C457.037397,516.711401 468.365686,492.576001 486.477642,469.312864 C501.463882,450.06442 519.256262,436.281723 539.581405,427.005259 C553.346604,420.722776 567.882566,416.657017 583.693373,414.180773 C594.767141,412.446431 600.24738,412.005789 620.016395,410.83936 C634.756776,409.969635 640.068972,409.032273 642.056753,406.338298 C644.314437,403.278532 640.880032,397.371608 630.088291,386.58341 C577.572738,334.085095 472.530189,334.072636 420.002173,386.58341 Z" id="duplicate_3_original_Rectangle-2_10007733" opacity="0.94" transform="translate(511.679700, 479.885517) rotate(14.400000) translate(-511.679700, -479.885517) "></path>
                    <path d="M424.46271,390.914045 C374.420369,440.93996 374.408478,541.149077 424.46271,591.186879 C436.079367,602.799723 441.740208,607.053775 444.520206,606.333168 C446.887933,605.719426 447.543838,602.027154 447.964502,589.593094 C448.726717,567.063383 449.768336,555.802025 453.867727,539.040554 C459.747378,514.999999 470.553244,491.977642 487.829769,469.787539 C502.125384,451.42614 519.098029,438.278443 538.486661,429.429406 C551.617424,423.436481 565.483243,419.558164 580.564917,417.196115 C591.127647,415.54181 596.354887,415.12151 615.21058,414.00897 C629.25863,413.180095 634.325108,412.286091 636.214552,409.725389 C638.357238,406.821476 635.0856,401.1945 624.801769,390.914045 C574.723559,340.852272 474.552805,340.840391 424.46271,390.914045 Z" id="duplicate_2_original_Rectangle-2_10007733" opacity="0.96" transform="translate(511.884728, 479.885517) rotate(7.200000) translate(-511.884728, -479.885517) "></path>
                    <path d="M428.432304,393.520871 C379.856078,442.081152 379.844536,539.356566 428.432304,587.928386 C439.704477,599.196859 445.199576,603.326357 447.890473,602.628846 C450.178497,602.035765 450.815323,598.450895 451.22333,586.39094 C451.963333,564.517777 452.974625,553.584293 456.954687,537.310731 C462.663225,513.96982 473.154619,491.617459 489.928255,470.07327 C503.808148,452.245828 520.287353,439.480369 539.112252,430.888622 C551.861117,425.069997 565.323542,421.30451 579.966314,419.011201 C590.221425,417.405074 595.296373,416.997019 613.602291,415.916917 C627.233592,415.112631 632.152161,414.244727 633.98241,411.76425 C636.055873,408.954152 632.882213,403.495691 622.904118,393.520871 C574.293067,344.925776 477.054892,344.914244 428.432304,393.520871 Z" id="duplicate_1_original_Rectangle-2_10007733" opacity="0.98"></path>
                </g>
            </g>
        </g>
    </g>
</svg>