<?xml version="1.0" encoding="UTF-8"?>
<svg width="643px" height="643px" viewBox="0 0 643 643" version="1.1" xmlns="http://www.w3.org/2000/svg" xmlns:xlink="http://www.w3.org/1999/xlink">
    <!-- Generator: Sketch 45.2 (43514) - http://www.bohemiancoding.com/sketch -->
    <title>Transcend BG</title>
    <desc>Created with Sketch.</desc>
    <defs></defs>
    <g id="Symbols" stroke="none" stroke-width="1" fill="none" fill-rule="evenodd">
        <g id="Transcend-BG" stroke="#FFFFFF">
            <g id="Transcend">
                <g id="Looper_Group-Copy">
                    <g id="original_original_Rectangle-4_40175775_16078874-Group">
                        <rect id="duplicate_20_original_original_Rectangle-4_40175775_16078874" opacity="0" transform="translate(319.537384, 321.500000) rotate(342.000000) translate(-319.537384, -321.500000) " x="87.0291038" y="88.9917202" width="465.01656" height="465.01656"></rect>
                        <rect id="duplicate_19_original_original_Rectangle-4_40175775_16078874" opacity="0.05" transform="translate(321.275136, 321.500000) rotate(324.000000) translate(-321.275136, -321.500000) " x="92.1333699" y="92.3582344" width="458.283531" height="458.283531"></rect>
                        <rect id="duplicate_18_original_original_Rectangle-4_40175775_16078874" opacity="0.1" transform="translate(321.276227, 321.500000) rotate(306.000000) translate(-321.276227, -321.500000) " x="98.9365435" y="99.1603165" width="444.679367" height="444.679367"></rect>
                        <rect id="duplicate_17_original_original_Rectangle-4_40175775_16078874" opacity="0.15" transform="translate(322.976226, 321.500000) rotate(288.000000) translate(-322.976226, -321.500000) " x="104.079716" y="102.60349" width="437.793019" height="437.793019"></rect>
                        <rect id="duplicate_16_original_original_Rectangle-4_40175775_16078874" opacity="0.2" transform="translate(324.717283, 321.500000) rotate(270.000000) translate(-324.717283, -321.500000) " x="109.183072" y="105.96579" width="431.06842" height="431.06842"></rect>
                        <rect id="duplicate_15_original_original_Rectangle-4_40175775_16078874" opacity="0.25" transform="translate(324.717464, 321.500000) rotate(252.000000) translate(-324.717464, -321.500000) " x="115.98713" y="112.769666" width="417.460669" height="417.460669"></rect>
                        <rect id="duplicate_14_original_original_Rectangle-4_40175775_16078874" opacity="0.3" transform="translate(326.418347, 321.500000) rotate(234.000000) translate(-326.418347, -321.500000) " x="121.131966" y="116.21362" width="410.572761" height="410.572761"></rect>
                        <rect id="duplicate_13_original_original_Rectangle-4_40175775_16078874" opacity="0.35" transform="translate(328.161067, 321.500000) rotate(216.000000) translate(-328.161067, -321.500000) " x="126.236343" y="119.575276" width="403.849448" height="403.849448"></rect>
                        <rect id="duplicate_12_original_original_Rectangle-4_40175775_16078874" opacity="0.4" transform="translate(328.162269, 321.500000) rotate(198.000000) translate(-328.162269, -321.500000) " x="133.039414" y="126.377145" width="390.245709" height="390.245709"></rect>
                        <rect id="duplicate_11_original_original_Rectangle-4_40175775_16078874" opacity="0.45" transform="translate(329.862165, 321.500000) rotate(180.000000) translate(-329.862165, -321.500000) " x="138.188105" y="129.82594" width="383.34812" height="383.34812"></rect>
                        <rect id="duplicate_10_original_original_Rectangle-4_40175775_16078874" opacity="0.5" transform="translate(331.608740, 321.500000) rotate(162.000000) translate(-331.608740, -321.500000) " x="143.29173" y="133.18299" width="376.634021" height="376.634021"></rect>
                        <rect id="duplicate_9_original_original_Rectangle-4_40175775_16078874" opacity="0.55" transform="translate(333.310248, 321.500000) rotate(144.000000) translate(-333.310248, -321.500000) " x="148.440437" y="136.630189" width="369.739622" height="369.739622"></rect>
                        <rect id="duplicate_8_original_original_Rectangle-4_40175775_16078874" opacity="0.6" transform="translate(335.056839, 321.500000) rotate(126.000000) translate(-335.056839, -321.500000) " x="153.545733" y="139.988894" width="363.022212" height="363.022212"></rect>
                        <rect id="duplicate_7_original_original_Rectangle-4_40175775_16078874" opacity="0.65" transform="translate(335.058960, 321.500000) rotate(108.000000) translate(-335.058960, -321.500000) " x="160.347924" y="146.788963" width="349.422074" height="349.422074"></rect>
                        <rect id="duplicate_6_original_original_Rectangle-4_40175775_16078874" opacity="0.7" transform="translate(336.757977, 321.500000) rotate(90.000000) translate(-336.757977, -321.500000) " x="165.502646" y="150.244669" width="342.510662" height="342.510662"></rect>
                        <rect id="duplicate_5_original_original_Rectangle-4_40175775_16078874" opacity="0.75" transform="translate(338.510582, 321.500000) rotate(72.000000) translate(-338.510582, -321.500000) " x="170.60582" y="153.595238" width="335.809524" height="335.809524"></rect>
                        <rect id="duplicate_4_original_original_Rectangle-4_40175775_16078874" opacity="0.8" transform="translate(338.510582, 321.500000) rotate(54.000000) translate(-338.510582, -321.500000) " x="177.410053" y="160.399471" width="322.201058" height="322.201058"></rect>
                        <rect id="duplicate_3_original_original_Rectangle-4_40175775_16078874" opacity="0.85" transform="translate(338.510582, 321.500000) rotate(36.000000) translate(-338.510582, -321.500000) " x="184.214286" y="167.203704" width="308.592593" height="308.592593"></rect>
                        <rect id="duplicate_2_original_original_Rectangle-4_40175775_16078874" opacity="0.9" transform="translate(338.510582, 321.500000) rotate(18.000000) translate(-338.510582, -321.500000) " x="191.018519" y="174.007937" width="294.984127" height="294.984127"></rect>
                        <rect id="duplicate_1_original_original_Rectangle-4_40175775_16078874" opacity="0.95" x="197.822751" y="180.812169" width="281.375661" height="281.375661"></rect>
                    </g>
                </g>
                <g id="Looper_Group-Copy" transform="translate(137.000000, 137.000000)">
                    <g id="original_original_Rectangle-4_40175775_16078874-Group">
                        <rect id="duplicate_20_original_original_Rectangle-4_40175775_16078874" opacity="0" transform="translate(183.373708, 184.500000) rotate(342.000000) translate(-183.373708, -184.500000) " x="50.1566707" y="51.2829623" width="266.434075" height="266.434075"></rect>
                        <rect id="duplicate_19_original_original_Rectangle-4_40175775_16078874" opacity="0.05" transform="translate(184.370956, 184.500000) rotate(324.000000) translate(-184.370956, -184.500000) " x="53.0858686" y="53.2149121" width="262.570176" height="262.570176"></rect>
                        <rect id="duplicate_18_original_original_Rectangle-4_40175775_16078874" opacity="0.1" transform="translate(184.371583, 184.500000) rotate(306.000000) translate(-184.371583, -184.500000) " x="56.9900226" y="57.1184398" width="254.76312" height="254.76312"></rect>
                        <rect id="duplicate_17_original_original_Rectangle-4_40175775_16078874" opacity="0.15" transform="translate(185.347165, 184.500000) rotate(288.000000) translate(-185.347165, -184.500000) " x="59.941548" y="59.0943825" width="250.811235" height="250.811235"></rect>
                        <rect id="duplicate_16_original_original_Rectangle-4_40175775_16078874" opacity="0.2" transform="translate(186.346310, 184.500000) rotate(270.000000) translate(-186.346310, -184.500000) " x="62.8702235" y="61.0239136" width="246.952173" height="246.952173"></rect>
                        <rect id="duplicate_15_original_original_Rectangle-4_40175775_16078874" opacity="0.25" transform="translate(186.346414, 184.500000) rotate(252.000000) translate(-186.346414, -184.500000) " x="66.7748846" y="64.9284707" width="239.143059" height="239.143059"></rect>
                        <rect id="duplicate_14_original_original_Rectangle-4_40175775_16078874" opacity="0.3" transform="translate(187.322504, 184.500000) rotate(234.000000) translate(-187.322504, -184.500000) " x="69.7273647" y="66.904861" width="235.190278" height="235.190278"></rect>
                        <rect id="duplicate_13_original_original_Rectangle-4_40175775_16078874" opacity="0.35" transform="translate(188.322603, 184.500000) rotate(216.000000) translate(-188.322603, -184.500000) " x="72.6566259" y="68.8340231" width="231.331954" height="231.331954"></rect>
                        <rect id="duplicate_12_original_original_Rectangle-4_40175775_16078874" opacity="0.4" transform="translate(188.323293, 184.500000) rotate(198.000000) translate(-188.323293, -184.500000) " x="76.5607212" y="72.7374287" width="223.525143" height="223.525143"></rect>
                        <rect id="duplicate_11_original_original_Rectangle-4_40175775_16078874" opacity="0.45" transform="translate(189.298816, 184.500000) rotate(180.000000) translate(-189.298816, -184.500000) " x="79.5154133" y="74.7165969" width="219.566806" height="219.566806"></rect>
                        <rect id="duplicate_10_original_original_Rectangle-4_40175775_16078874" opacity="0.5" transform="translate(190.301128, 184.500000) rotate(162.000000) translate(-190.301128, -184.500000) " x="82.444243" y="76.6431154" width="215.713769" height="215.713769"></rect>
                        <rect id="duplicate_9_original_original_Rectangle-4_40175775_16078874" opacity="0.55" transform="translate(191.277576, 184.500000) rotate(144.000000) translate(-191.277576, -184.500000) " x="85.3989444" y="78.6213681" width="211.757264" height="211.757264"></rect>
                        <rect id="duplicate_8_original_original_Rectangle-4_40175775_16078874" opacity="0.6" transform="translate(192.279897, 184.500000) rotate(126.000000) translate(-192.279897, -184.500000) " x="88.3287332" y="80.5488364" width="207.902327" height="207.902327"></rect>
                        <rect id="duplicate_7_original_original_Rectangle-4_40175775_16078874" opacity="0.65" transform="translate(192.281114, 184.500000) rotate(108.000000) translate(-192.281114, -184.500000) " x="92.2323232" y="84.4512091" width="200.097582" height="200.097582"></rect>
                        <rect id="duplicate_6_original_original_Rectangle-4_40175775_16078874" opacity="0.7" transform="translate(193.256133, 184.500000) rotate(90.000000) translate(-193.256133, -184.500000) " x="95.1904762" y="86.4343434" width="196.131313" height="196.131313"></rect>
                        <rect id="duplicate_5_original_original_Rectangle-4_40175775_16078874" opacity="0.75" transform="translate(194.261905, 184.500000) rotate(72.000000) translate(-194.261905, -184.500000) " x="98.1190476" y="88.3571429" width="192.285714" height="192.285714"></rect>
                        <rect id="duplicate_4_original_original_Rectangle-4_40175775_16078874" opacity="0.8" transform="translate(194.261905, 184.500000) rotate(54.000000) translate(-194.261905, -184.500000) " x="102.02381" y="92.2619048" width="184.47619" height="184.47619"></rect>
                        <rect id="duplicate_3_original_original_Rectangle-4_40175775_16078874" opacity="0.85" transform="translate(194.261905, 184.500000) rotate(36.000000) translate(-194.261905, -184.500000) " x="105.928571" y="96.1666667" width="176.666667" height="176.666667"></rect>
                        <rect id="duplicate_2_original_original_Rectangle-4_40175775_16078874" opacity="0.9" transform="translate(194.261905, 184.500000) rotate(18.000000) translate(-194.261905, -184.500000) " x="109.833333" y="100.071429" width="168.857143" height="168.857143"></rect>
                        <rect id="duplicate_1_original_original_Rectangle-4_40175775_16078874" opacity="0.95" x="113.738095" y="103.97619" width="161.047619" height="161.047619"></rect>
                    </g>
                </g>
                <g id="Looper_Group-Copy" transform="translate(228.000000, 228.000000)">
                    <g id="original_original_Rectangle-4_40175775_16078874-Group">
                        <rect id="duplicate_20_original_original_Rectangle-4_40175775_16078874" opacity="0" transform="translate(93.426171, 94.000000) rotate(342.000000) translate(-93.426171, -94.000000) " x="25.7993336" y="26.3731624" width="135.253675" height="135.253675"></rect>
                        <rect id="duplicate_19_original_original_Rectangle-4_40175775_16078874" opacity="0.05" transform="translate(93.934254, 94.000000) rotate(324.000000) translate(-93.934254, -94.000000) " x="27.2917162" y="27.357462" width="133.285076" height="133.285076"></rect>
                        <rect id="duplicate_18_original_original_Rectangle-4_40175775_16078874" opacity="0.1" transform="translate(93.934573, 94.000000) rotate(306.000000) translate(-93.934573, -94.000000) " x="29.2808245" y="29.3462512" width="129.307498" height="129.307498"></rect>
                        <rect id="duplicate_17_original_original_Rectangle-4_40175775_16078874" opacity="0.15" transform="translate(94.431618, 94.000000) rotate(288.000000) translate(-94.431618, -94.000000) " x="30.7845827" y="30.3529645" width="127.294071" height="127.294071"></rect>
                        <rect id="duplicate_16_original_original_Rectangle-4_40175775_16078874" opacity="0.2" transform="translate(94.940667, 94.000000) rotate(270.000000) translate(-94.940667, -94.000000) " x="32.2766992" y="31.3360318" width="125.327936" height="125.327936"></rect>
                        <rect id="duplicate_15_original_original_Rectangle-4_40175775_16078874" opacity="0.25" transform="translate(94.940720, 94.000000) rotate(252.000000) translate(-94.940720, -94.000000) " x="34.2660659" y="33.3253455" width="121.349309" height="121.349309"></rect>
                        <rect id="duplicate_14_original_original_Rectangle-4_40175775_16078874" opacity="0.3" transform="translate(95.438024, 94.000000) rotate(234.000000) translate(-95.438024, -94.000000) " x="35.7703105" y="34.3322869" width="119.335426" height="119.335426"></rect>
                        <rect id="duplicate_13_original_original_Rectangle-4_40175775_16078874" opacity="0.35" transform="translate(95.947559, 94.000000) rotate(216.000000) translate(-95.947559, -94.000000) " x="37.2627254" y="35.3151662" width="117.369668" height="117.369668"></rect>
                        <rect id="duplicate_12_original_original_Rectangle-4_40175775_16078874" opacity="0.4" transform="translate(95.947911, 94.000000) rotate(198.000000) translate(-95.947911, -94.000000) " x="39.2518038" y="37.3038932" width="113.392214" height="113.392214"></rect>
                        <rect id="duplicate_11_original_original_Rectangle-4_40175775_16078874" opacity="0.45" transform="translate(96.444925, 94.000000) rotate(180.000000) translate(-96.444925, -94.000000) " x="40.7571753" y="38.3122499" width="111.3755" height="111.3755"></rect>
                        <rect id="duplicate_10_original_original_Rectangle-4_40175775_16078874" opacity="0.5" transform="translate(96.955588, 94.000000) rotate(162.000000) translate(-96.955588, -94.000000) " x="42.2493704" y="39.2937824" width="109.412435" height="109.412435"></rect>
                        <rect id="duplicate_9_original_original_Rectangle-4_40175775_16078874" opacity="0.55" transform="translate(97.453074, 94.000000) rotate(144.000000) translate(-97.453074, -94.000000) " x="43.7547467" y="40.3016726" width="107.396655" height="107.396655"></rect>
                        <rect id="duplicate_8_original_original_Rectangle-4_40175775_16078874" opacity="0.6" transform="translate(97.963741, 94.000000) rotate(126.000000) translate(-97.963741, -94.000000) " x="45.2474305" y="41.283689" width="105.432622" height="105.432622"></rect>
                        <rect id="duplicate_7_original_original_Rectangle-4_40175775_16078874" opacity="0.65" transform="translate(97.964362, 94.000000) rotate(108.000000) translate(-97.964362, -94.000000) " x="47.2362514" y="43.2718897" width="101.456221" height="101.456221"></rect>
                        <rect id="duplicate_6_original_original_Rectangle-4_40175775_16078874" opacity="0.7" transform="translate(98.461119, 94.000000) rotate(90.000000) translate(-98.461119, -94.000000) " x="48.7433862" y="44.2822671" width="99.4354658" height="99.4354658"></rect>
                        <rect id="duplicate_5_original_original_Rectangle-4_40175775_16078874" opacity="0.75" transform="translate(98.973545, 94.000000) rotate(72.000000) translate(-98.973545, -94.000000) " x="50.2354497" y="45.2619048" width="97.4761905" height="97.4761905"></rect>
                        <rect id="duplicate_4_original_original_Rectangle-4_40175775_16078874" opacity="0.8" transform="translate(98.973545, 94.000000) rotate(54.000000) translate(-98.973545, -94.000000) " x="52.2248677" y="47.2513228" width="93.4973545" height="93.4973545"></rect>
                        <rect id="duplicate_3_original_original_Rectangle-4_40175775_16078874" opacity="0.85" transform="translate(98.973545, 94.000000) rotate(36.000000) translate(-98.973545, -94.000000) " x="54.2142857" y="49.2407407" width="89.5185185" height="89.5185185"></rect>
                        <rect id="duplicate_2_original_original_Rectangle-4_40175775_16078874" opacity="0.9" transform="translate(98.973545, 94.000000) rotate(18.000000) translate(-98.973545, -94.000000) " x="56.2037037" y="51.2301587" width="85.5396825" height="85.5396825"></rect>
                        <rect id="duplicate_1_original_original_Rectangle-4_40175775_16078874" opacity="0.95" x="58.1931217" y="53.2195767" width="81.5608466" height="81.5608466"></rect>
                    </g>
                </g>
            </g>
        </g>
    </g>
</svg>