<?xml version="1.0" encoding="UTF-8"?>
<svg width="1064px" height="1024px" viewBox="0 0 1064 1024" version="1.1" xmlns="http://www.w3.org/2000/svg" xmlns:xlink="http://www.w3.org/1999/xlink">
    <!-- Generator: Sketch 45.2 (43514) - http://www.bohemiancoding.com/sketch -->
    <title>Understand BG</title>
    <desc>Created with Sketch.</desc>
    <defs></defs>
    <g id="Symbols" stroke="none" stroke-width="1" fill="none" fill-rule="evenodd">
        <g id="Understand-BG" stroke="#FFFFFF">
            <g id="Understand">
                <g id="Looper_Group" transform="translate(139.000000, 0.000000)">
                    <g id="original_Oval_91482418-Group">
                        <circle id="duplicate_20_original_Oval_91482418" opacity="0" transform="translate(401.257469, 402.000000) rotate(342.000000) translate(-401.257469, -402.000000) " cx="401.257469" cy="402" r="299.942594"></circle>
                        <circle id="duplicate_19_original_Oval_91482418" opacity="0.05" transform="translate(401.964622, 402.000000) rotate(324.000000) translate(-401.964622, -402.000000) " cx="401.964622" cy="402" r="287.722432"></circle>
                        <circle id="duplicate_18_original_Oval_91482418" opacity="0.1" transform="translate(401.968078, 402.000000) rotate(306.000000) translate(-401.968078, -402.000000) " cx="401.968078" cy="402" r="274.125121"></circle>
                        <circle id="duplicate_17_original_Oval_91482418" opacity="0.15" transform="translate(402.644988, 402.000000) rotate(288.000000) translate(-402.644988, -402.000000) " cx="402.644988" cy="402" r="261.842958"></circle>
                        <circle id="duplicate_16_original_Oval_91482418" opacity="0.2" transform="translate(403.360406, 402.000000) rotate(270.000000) translate(-403.360406, -402.000000) " cx="403.360406" cy="402" r="249.634518"></circle>
                        <circle id="duplicate_15_original_Oval_91482418" opacity="0.25" transform="translate(403.360406, 402.000000) rotate(252.000000) translate(-403.360406, -402.000000) " cx="403.360406" cy="402" r="236.030457"></circle>
                        <circle id="duplicate_14_original_Oval_91482418" opacity="0.3" transform="translate(403.360406, 402.000000) rotate(234.000000) translate(-403.360406, -402.000000) " cx="403.360406" cy="402" r="222.426396"></circle>
                        <circle id="duplicate_13_original_Oval_91482418" opacity="0.35" transform="translate(403.360406, 402.000000) rotate(216.000000) translate(-403.360406, -402.000000) " cx="403.360406" cy="402" r="208.822335"></circle>
                        <circle id="duplicate_12_original_Oval_91482418" opacity="0.4" transform="translate(403.360406, 402.000000) rotate(198.000000) translate(-403.360406, -402.000000) " cx="403.360406" cy="402" r="195.218274"></circle>
                        <circle id="duplicate_11_original_Oval_91482418" opacity="0.45" transform="translate(403.360406, 402.000000) rotate(180.000000) translate(-403.360406, -402.000000) " cx="403.360406" cy="402" r="181.614213"></circle>
                        <circle id="duplicate_10_original_Oval_91482418" opacity="0.5" transform="translate(403.360406, 402.000000) rotate(162.000000) translate(-403.360406, -402.000000) " cx="403.360406" cy="402" r="168.010152"></circle>
                        <circle id="duplicate_9_original_Oval_91482418" opacity="0.55" transform="translate(403.360406, 402.000000) rotate(144.000000) translate(-403.360406, -402.000000) " cx="403.360406" cy="402" r="154.406091"></circle>
                        <circle id="duplicate_8_original_Oval_91482418" opacity="0.6" transform="translate(403.360406, 402.000000) rotate(126.000000) translate(-403.360406, -402.000000) " cx="403.360406" cy="402" r="140.80203"></circle>
                        <circle id="duplicate_7_original_Oval_91482418" opacity="0.65" transform="translate(403.360406, 402.000000) rotate(108.000000) translate(-403.360406, -402.000000) " cx="403.360406" cy="402" r="127.19797"></circle>
                        <circle id="duplicate_6_original_Oval_91482418" opacity="0.7" transform="translate(403.360406, 402.000000) rotate(90.000000) translate(-403.360406, -402.000000) " cx="403.360406" cy="402" r="113.593909"></circle>
                        <circle id="duplicate_5_original_Oval_91482418" opacity="0.75" transform="translate(403.360406, 402.000000) rotate(72.000000) translate(-403.360406, -402.000000) " cx="403.360406" cy="402" r="99.9898477"></circle>
                        <circle id="duplicate_4_original_Oval_91482418" opacity="0.8" transform="translate(403.360406, 402.000000) rotate(54.000000) translate(-403.360406, -402.000000) " cx="403.360406" cy="402" r="86.3857868"></circle>
                        <circle id="duplicate_3_original_Oval_91482418" opacity="0.85" transform="translate(403.360406, 402.000000) rotate(36.000000) translate(-403.360406, -402.000000) " cx="403.360406" cy="402" r="72.7817259"></circle>
                        <circle id="duplicate_2_original_Oval_91482418" opacity="0.9" transform="translate(403.360406, 402.000000) rotate(18.000000) translate(-403.360406, -402.000000) " cx="403.360406" cy="402" r="59.177665"></circle>
                        <circle id="duplicate_1_original_Oval_91482418" opacity="0.95" cx="403.360406" cy="402" r="45.5736041"></circle>
                    </g>
                </g>
                <g id="Looper_Group-Copy" transform="translate(260.000000, 220.000000)">
                    <g id="original_Oval_91482418-Group">
                        <circle id="duplicate_20_original_Oval_91482418" opacity="0" transform="translate(401.257469, 402.000000) rotate(342.000000) translate(-401.257469, -402.000000) " cx="401.257469" cy="402" r="299.942594"></circle>
                        <circle id="duplicate_19_original_Oval_91482418" opacity="0.05" transform="translate(401.964622, 402.000000) rotate(324.000000) translate(-401.964622, -402.000000) " cx="401.964622" cy="402" r="287.722432"></circle>
                        <circle id="duplicate_18_original_Oval_91482418" opacity="0.1" transform="translate(401.968078, 402.000000) rotate(306.000000) translate(-401.968078, -402.000000) " cx="401.968078" cy="402" r="274.125121"></circle>
                        <circle id="duplicate_17_original_Oval_91482418" opacity="0.15" transform="translate(402.644988, 402.000000) rotate(288.000000) translate(-402.644988, -402.000000) " cx="402.644988" cy="402" r="261.842958"></circle>
                        <circle id="duplicate_16_original_Oval_91482418" opacity="0.2" transform="translate(403.360406, 402.000000) rotate(270.000000) translate(-403.360406, -402.000000) " cx="403.360406" cy="402" r="249.634518"></circle>
                        <circle id="duplicate_15_original_Oval_91482418" opacity="0.25" transform="translate(403.360406, 402.000000) rotate(252.000000) translate(-403.360406, -402.000000) " cx="403.360406" cy="402" r="236.030457"></circle>
                        <circle id="duplicate_14_original_Oval_91482418" opacity="0.3" transform="translate(403.360406, 402.000000) rotate(234.000000) translate(-403.360406, -402.000000) " cx="403.360406" cy="402" r="222.426396"></circle>
                        <circle id="duplicate_13_original_Oval_91482418" opacity="0.35" transform="translate(403.360406, 402.000000) rotate(216.000000) translate(-403.360406, -402.000000) " cx="403.360406" cy="402" r="208.822335"></circle>
                        <circle id="duplicate_12_original_Oval_91482418" opacity="0.4" transform="translate(403.360406, 402.000000) rotate(198.000000) translate(-403.360406, -402.000000) " cx="403.360406" cy="402" r="195.218274"></circle>
                        <circle id="duplicate_11_original_Oval_91482418" opacity="0.45" transform="translate(403.360406, 402.000000) rotate(180.000000) translate(-403.360406, -402.000000) " cx="403.360406" cy="402" r="181.614213"></circle>
                        <circle id="duplicate_10_original_Oval_91482418" opacity="0.5" transform="translate(403.360406, 402.000000) rotate(162.000000) translate(-403.360406, -402.000000) " cx="403.360406" cy="402" r="168.010152"></circle>
                        <circle id="duplicate_9_original_Oval_91482418" opacity="0.55" transform="translate(403.360406, 402.000000) rotate(144.000000) translate(-403.360406, -402.000000) " cx="403.360406" cy="402" r="154.406091"></circle>
                        <circle id="duplicate_8_original_Oval_91482418" opacity="0.6" transform="translate(403.360406, 402.000000) rotate(126.000000) translate(-403.360406, -402.000000) " cx="403.360406" cy="402" r="140.80203"></circle>
                        <circle id="duplicate_7_original_Oval_91482418" opacity="0.65" transform="translate(403.360406, 402.000000) rotate(108.000000) translate(-403.360406, -402.000000) " cx="403.360406" cy="402" r="127.19797"></circle>
                        <circle id="duplicate_6_original_Oval_91482418" opacity="0.7" transform="translate(403.360406, 402.000000) rotate(90.000000) translate(-403.360406, -402.000000) " cx="403.360406" cy="402" r="113.593909"></circle>
                        <circle id="duplicate_5_original_Oval_91482418" opacity="0.75" transform="translate(403.360406, 402.000000) rotate(72.000000) translate(-403.360406, -402.000000) " cx="403.360406" cy="402" r="99.9898477"></circle>
                        <circle id="duplicate_4_original_Oval_91482418" opacity="0.8" transform="translate(403.360406, 402.000000) rotate(54.000000) translate(-403.360406, -402.000000) " cx="403.360406" cy="402" r="86.3857868"></circle>
                        <circle id="duplicate_3_original_Oval_91482418" opacity="0.85" transform="translate(403.360406, 402.000000) rotate(36.000000) translate(-403.360406, -402.000000) " cx="403.360406" cy="402" r="72.7817259"></circle>
                        <circle id="duplicate_2_original_Oval_91482418" opacity="0.9" transform="translate(403.360406, 402.000000) rotate(18.000000) translate(-403.360406, -402.000000) " cx="403.360406" cy="402" r="59.177665"></circle>
                        <circle id="duplicate_1_original_Oval_91482418" opacity="0.95" cx="403.360406" cy="402" r="45.5736041"></circle>
                    </g>
                </g>
                <g id="Looper_Group-Copy-2" transform="translate(0.000000, 220.000000)">
                    <g id="original_Oval_91482418-Group">
                        <circle id="duplicate_20_original_Oval_91482418" opacity="0" transform="translate(401.257469, 402.000000) rotate(342.000000) translate(-401.257469, -402.000000) " cx="401.257469" cy="402" r="299.942594"></circle>
                        <circle id="duplicate_19_original_Oval_91482418" opacity="0.05" transform="translate(401.964622, 402.000000) rotate(324.000000) translate(-401.964622, -402.000000) " cx="401.964622" cy="402" r="287.722432"></circle>
                        <circle id="duplicate_18_original_Oval_91482418" opacity="0.1" transform="translate(401.968078, 402.000000) rotate(306.000000) translate(-401.968078, -402.000000) " cx="401.968078" cy="402" r="274.125121"></circle>
                        <circle id="duplicate_17_original_Oval_91482418" opacity="0.15" transform="translate(402.644988, 402.000000) rotate(288.000000) translate(-402.644988, -402.000000) " cx="402.644988" cy="402" r="261.842958"></circle>
                        <circle id="duplicate_16_original_Oval_91482418" opacity="0.2" transform="translate(403.360406, 402.000000) rotate(270.000000) translate(-403.360406, -402.000000) " cx="403.360406" cy="402" r="249.634518"></circle>
                        <circle id="duplicate_15_original_Oval_91482418" opacity="0.25" transform="translate(403.360406, 402.000000) rotate(252.000000) translate(-403.360406, -402.000000) " cx="403.360406" cy="402" r="236.030457"></circle>
                        <circle id="duplicate_14_original_Oval_91482418" opacity="0.3" transform="translate(403.360406, 402.000000) rotate(234.000000) translate(-403.360406, -402.000000) " cx="403.360406" cy="402" r="222.426396"></circle>
                        <circle id="duplicate_13_original_Oval_91482418" opacity="0.35" transform="translate(403.360406, 402.000000) rotate(216.000000) translate(-403.360406, -402.000000) " cx="403.360406" cy="402" r="208.822335"></circle>
                        <circle id="duplicate_12_original_Oval_91482418" opacity="0.4" transform="translate(403.360406, 402.000000) rotate(198.000000) translate(-403.360406, -402.000000) " cx="403.360406" cy="402" r="195.218274"></circle>
                        <circle id="duplicate_11_original_Oval_91482418" opacity="0.45" transform="translate(403.360406, 402.000000) rotate(180.000000) translate(-403.360406, -402.000000) " cx="403.360406" cy="402" r="181.614213"></circle>
                        <circle id="duplicate_10_original_Oval_91482418" opacity="0.5" transform="translate(403.360406, 402.000000) rotate(162.000000) translate(-403.360406, -402.000000) " cx="403.360406" cy="402" r="168.010152"></circle>
                        <circle id="duplicate_9_original_Oval_91482418" opacity="0.55" transform="translate(403.360406, 402.000000) rotate(144.000000) translate(-403.360406, -402.000000) " cx="403.360406" cy="402" r="154.406091"></circle>
                        <circle id="duplicate_8_original_Oval_91482418" opacity="0.6" transform="translate(403.360406, 402.000000) rotate(126.000000) translate(-403.360406, -402.000000) " cx="403.360406" cy="402" r="140.80203"></circle>
                        <circle id="duplicate_7_original_Oval_91482418" opacity="0.65" transform="translate(403.360406, 402.000000) rotate(108.000000) translate(-403.360406, -402.000000) " cx="403.360406" cy="402" r="127.19797"></circle>
                        <circle id="duplicate_6_original_Oval_91482418" opacity="0.7" transform="translate(403.360406, 402.000000) rotate(90.000000) translate(-403.360406, -402.000000) " cx="403.360406" cy="402" r="113.593909"></circle>
                        <circle id="duplicate_5_original_Oval_91482418" opacity="0.75" transform="translate(403.360406, 402.000000) rotate(72.000000) translate(-403.360406, -402.000000) " cx="403.360406" cy="402" r="99.9898477"></circle>
                        <circle id="duplicate_4_original_Oval_91482418" opacity="0.8" transform="translate(403.360406, 402.000000) rotate(54.000000) translate(-403.360406, -402.000000) " cx="403.360406" cy="402" r="86.3857868"></circle>
                        <circle id="duplicate_3_original_Oval_91482418" opacity="0.85" transform="translate(403.360406, 402.000000) rotate(36.000000) translate(-403.360406, -402.000000) " cx="403.360406" cy="402" r="72.7817259"></circle>
                        <circle id="duplicate_2_original_Oval_91482418" opacity="0.9" transform="translate(403.360406, 402.000000) rotate(18.000000) translate(-403.360406, -402.000000) " cx="403.360406" cy="402" r="59.177665"></circle>
                        <circle id="duplicate_1_original_Oval_91482418" opacity="0.95" cx="403.360406" cy="402" r="45.5736041"></circle>
                    </g>
                </g>
            </g>
        </g>
    </g>
</svg>